<svg xmlns="http://www.w3.org/2000/svg" width="1901.241" height="1901.079" viewBox="0 0 1901.241 1901.079">
  <g id="Group_896" data-name="Group 896" transform="translate(517.537 1799.026)">
    <g id="Path_217" data-name="Path 217">
      <path id="Path_340" data-name="Path 340" d="M349.211-611.64C78.193-599.894-164.668-705.371-309.848-786.716a27.4,27.4,0,0,1-10.423-37.321,27.391,27.391,0,0,1,7.355-8.413c119.375-90.631,311.055-205.779,523.371-214.992C443.691-1057.6,712.532-941.48,873.818-857.871a27.4,27.4,0,0,1,11.814,36.9,27.416,27.416,0,0,1-6.9,8.568C774.969-726.861,598.842-622.526,349.211-611.64Z" fill="none"/>
      <path id="Path_341" data-name="Path 341" d="M307.4-610.739q20.775,0,41.811-.9C598.842-622.526,774.968-726.866,878.736-812.4a27.4,27.4,0,0,0-4.918-45.473c-154.633-80.16-408.1-190.2-634.294-190.2-9.734,0-19.447.2-29.07.624-212.316,9.213-404,124.361-523.371,214.992a27.4,27.4,0,0,0,3.068,45.734C-172.169-709.577,53.33-610.739,307.4-610.739m0,1c-30.838,0-62.435-1.481-93.914-4.4-29.791-2.764-60.25-6.89-90.53-12.262-28.515-5.059-57.6-11.353-86.453-18.708-27.008-6.884-54.49-14.871-81.683-23.739-25.27-8.24-50.913-17.444-76.218-27.356-23.3-9.126-46.873-19.072-70.062-29.56-40.1-18.135-80.093-38.348-118.876-60.078a28.674,28.674,0,0,1-5.912-4.384,27.807,27.807,0,0,1-4.387-5.468,28.522,28.522,0,0,1-4.1-12.877,28.679,28.679,0,0,1,2.3-13.413,28.071,28.071,0,0,1,3.62-6.066,28.878,28.878,0,0,1,5.286-5.2c33.444-25.391,67.882-49.139,102.357-70.584,19.826-12.333,39.961-24.082,59.844-34.921,21.543-11.743,43.35-22.723,64.817-32.633,23.058-10.647,46.335-20.342,69.184-28.818,24.375-9.041,48.919-16.938,72.95-23.47a754.932,754.932,0,0,1,76.112-16.59c13.029-2.125,26.168-3.887,39.052-5.237,13.224-1.385,26.553-2.374,39.616-2.941,9.516-.415,19.311-.625,29.113-.625,13.9,0,28.29.423,42.758,1.257,14.074.811,28.61,2.034,43.207,3.633,27.947,3.064,57.225,7.631,87.021,13.575,27.972,5.58,57.11,12.516,86.6,20.614,27.508,7.553,56.01,16.3,84.714,26.011,26.555,8.981,53.925,19,81.349,29.769,25.113,9.864,50.854,20.592,76.508,31.885,43.89,19.321,88.5,40.706,132.593,63.563a28.954,28.954,0,0,1,6.072,4.2,28.125,28.125,0,0,1,4.592,5.334,28.678,28.678,0,0,1,4.575,12.768,28.532,28.532,0,0,1-1.776,13.353,27.823,27.823,0,0,1-3.345,6.136,28.679,28.679,0,0,1-5.024,5.343c-103.941,85.675-280.286,190.09-530.118,200.985C335.439-610.042,321.357-609.739,307.4-609.739Z" fill="#fff" fill-rule="evenodd"/>
    </g>
    <path id="Path_218" data-name="Path 218" d="M187.467,101.3q-.16-6.334-.238-12.506c-.256-19.615,19.688-33.009,37.846-25.583C251.94,74.2,281.314,86.9,312.435,101.38" fill="none" stroke="#fff" stroke-linecap="round" stroke-linejoin="round" stroke-width="1"/>
    <path id="Path_219" data-name="Path 219" d="M312.437-1798.259c165.087,76.828,379.335,203.944,529,393.046,147.656,186.559,175.76,362.624,172.211,480.618a27.4,27.4,0,0,1-28.13,26.65,27.39,27.39,0,0,1-10.409-2.361c-180.5-80.553-479.985-234.841-633.233-428.444C221.054-1481.405,190.8-1665.964,187.469-1798.33" fill="none" stroke="#fff" stroke-linecap="round" stroke-linejoin="round" stroke-width="1"/>
    <path id="Path_220" data-name="Path 220" d="M1383-654.562c-192.4,36.079-375.8,17.516-500.748-5.828a27.4,27.4,0,0,1-21.826-32.018,27.394,27.394,0,0,1,4.281-10.336c84.134-124.039,228.931-294.411,427.143-371.019A734.214,734.214,0,0,1,1383-1102.056" fill="none" stroke="#fff" stroke-linecap="round" stroke-linejoin="round" stroke-width="1"/>
    <path id="Path_221" data-name="Path 221" d="M-516.748-1102.057c202.855-49.408,442.526-28.133,598.006-4.208a27.4,27.4,0,0,1,22.993,31.19,27.4,27.4,0,0,1-3.793,10.322C29.48-950.508-104.042-795.331-337.092-705.2a1019.492,1019.492,0,0,1-179.662,50.639" fill="none" stroke="#fff" stroke-linecap="round" stroke-linejoin="round" stroke-width="1"/>
    <path id="Path_222" data-name="Path 222" d="M836.75,101.45c-12.806-59.5-20.66-118.216-21.384-173.969-2.6-200.877,91.936-369.789,171.79-476.247,11.771-15.692,35.742-14.125,45.593,2.84,84.307,145.221,200.216,387,221.6,647.3" fill="none" stroke="#fff" stroke-linecap="round" stroke-linejoin="round" stroke-width="1"/>
    <path id="Path_223" data-name="Path 223" d="M1254.346-1798.255q2.88,35.051,3.383,70.489c3.072,237.9-82.145,394.513-156.981,485.8a27.4,27.4,0,0,1-38.55,3.931,27.394,27.394,0,0,1-6.8-8.221c-72.615-134.694-174.742-347.934-218.65-551.932" fill="none" stroke="#fff" stroke-linecap="round" stroke-linejoin="round" stroke-width="1"/>
    <path id="Path_224" data-name="Path 224" d="M376.276,101.305C555.446-29.571,814.516-94,981.715-123.8a27.4,27.4,0,0,1,31.843,22.081,27.41,27.41,0,0,1-.254,11,880.056,880.056,0,0,1-68.72,192.106" fill="none" stroke="#fff" stroke-linecap="round" stroke-linejoin="round" stroke-width="1"/>
    <path id="Path_225" data-name="Path 225" d="M944.584-1798.254C897.534-1703.223,825.54-1601.1,715.416-1508.7,507.559-1334.441,250.68-1270.365,85.99-1246.428a27.4,27.4,0,0,1-31-23.232,27.4,27.4,0,0,1,.713-11.18c39.538-144.57,121.514-352.592,284.335-489.143q17.479-14.665,36.242-28.344" fill="none" stroke="#fff" stroke-linecap="round" stroke-linejoin="round" stroke-width="1"/>
    <path id="Path_226" data-name="Path 226" d="M1383-33.918C1211.09-67.7,1063.346-137.218,962.8-194.659a27.4,27.4,0,0,1-10.115-37.406,27.384,27.384,0,0,1,7.425-8.352c100.506-75,251.77-166.733,422.893-199.059" fill="none" stroke="#fff" stroke-linecap="round" stroke-linejoin="round" stroke-width="1"/>
    <path id="Path_227" data-name="Path 227" d="M-516.756-439.476a678.708,678.708,0,0,1,102.25-11.574c233.312-8.218,501.178,110.136,661.764,195.083a27.4,27.4,0,0,1,11.508,37,27.4,27.4,0,0,1-6.967,8.512C147.324-125.792-29.665-22.917-279.38-14.108c-82.46,2.888-162.226-5.049-237.374-19.815" fill="none" stroke="#fff" stroke-linecap="round" stroke-linejoin="round" stroke-width="1"/>
    <g id="Path_228" data-name="Path 228">
      <path id="Path_342" data-name="Path 342" d="M250.251-424.692c-78.157-220-45.977-511.07-13.378-689.793a27.4,27.4,0,0,1,31.813-22.123,27.409,27.409,0,0,1,10.216,4.079c112.237,74.117,263.648,211.891,347.282,447.352C716.874-429.548,687.2-166.466,652.106-3.788a27.4,27.4,0,0,1-32.611,20.93,27.389,27.389,0,0,1-10.212-4.565C487.625-74.965,321.333-224.432,250.251-424.692Z" fill="none"/>
      <path id="Path_343" data-name="Path 343" d="M625.286,17.782a27.314,27.314,0,0,0,26.82-21.57c35.091-162.678,64.767-425.76-25.923-681.389C542.549-920.638,391.135-1058.412,278.9-1132.53a27.4,27.4,0,0,0-42.029,18.044c-32.6,178.724-64.779,469.793,13.378,689.794C321.333-224.432,487.625-74.965,609.283,12.577a27.244,27.244,0,0,0,16,5.2m0,1A28.255,28.255,0,0,1,608.7,13.388c-34.083-24.525-66.887-50.482-97.5-77.151C493.594-79.1,476.457-94.9,460.263-110.73c-17.544-17.15-34.436-34.777-50.207-52.391-16.94-18.921-33.036-38.33-47.84-57.687-15.792-20.649-30.54-41.8-43.832-62.853A754.744,754.744,0,0,1,280.2-351.554c-5.853-11.832-11.391-23.875-16.46-35.8-5.2-12.236-10.058-24.687-14.431-37.008-4.8-13.521-9.315-27.686-13.408-42.1-3.98-14.014-7.673-28.646-10.978-43.491-6.322-28.4-11.474-58.71-15.312-90.083-3.6-29.417-6.133-60.515-7.534-92.428-1.3-29.721-1.657-60.886-1.048-92.628.562-29.313,1.957-59.823,4.146-90.682,2-28.192,4.709-57.324,8.051-86.588,5.689-49.806,13.314-101.05,22.663-152.308a28.547,28.547,0,0,1,3.644-9.683,28.106,28.106,0,0,1,6.458-7.381,28.7,28.7,0,0,1,17.932-6.347,28.124,28.124,0,0,1,15.53,4.712c112.4,74.231,263.966,212.186,347.673,447.852,5.574,15.713,10.836,31.876,15.638,48.042,4.674,15.734,9.042,31.9,12.982,48.056,7.552,30.959,13.833,63.1,18.671,95.523,4.549,30.488,7.938,62.008,10.073,93.686,1.994,29.6,2.944,60.073,2.823,90.583-.113,28.285-1.148,57.292-3.078,86.217-1.771,26.553-4.338,53.667-7.63,80.589-5.652,46.239-13.566,93.085-23.521,139.239a28.358,28.358,0,0,1-3.818,9.327,27.874,27.874,0,0,1-6.446,7.042A28.8,28.8,0,0,1,625.286,18.782Z" fill="#fff" fill-rule="evenodd"/>
    </g>
    <g id="Path_229" data-name="Path 229">
      <path id="Path_344" data-name="Path 344" d="M139.092.756c-189.86,65.666-379.937,29.08-506.111-13.222-18.6-6.237-24.653-29.485-11.649-44.172,121.312-137,339.673-345.707,610.556-439.395,224.85-77.768,400.32-46.153,510.522-3.839a27.4,27.4,0,0,1,15.868,35.352,27.414,27.414,0,0,1-5.668,9.048C616.971-311.707,372.439-79.966,139.092.756Z" fill="none"/>
      <path id="Path_345" data-name="Path 345" d="M-81.827,36.658c71.045,0,146-9.991,220.919-35.9C372.438-79.966,616.971-311.707,752.606-455.477a27.4,27.4,0,0,0-10.2-44.4c-61.2-23.5-142.508-43.7-241.249-43.7-79.055,0-169.3,12.956-269.273,47.534C-38.995-402.346-257.356-193.64-378.669-56.639c-13,14.687-6.949,37.935,11.65,44.172,76.386,25.61,176.19,49.125,285.192,49.125m0,1c-26.127,0-53.011-1.373-79.9-4.08-24.683-2.484-49.952-6.15-75.107-10.9a989.064,989.064,0,0,1-130.5-34.2,28.58,28.58,0,0,1-6.577-3.18,27.74,27.74,0,0,1-5.3-4.515A28.5,28.5,0,0,1-385.629-31a28.722,28.722,0,0,1-.311-13.566,28.155,28.155,0,0,1,2.368-6.631,28.916,28.916,0,0,1,4.155-6.1c34.735-39.227,71.253-77.358,108.539-113.334,21.871-21.1,44.286-41.722,66.621-61.285,24.431-21.4,49.383-42.072,74.161-61.445,26.818-20.968,54.132-40.959,81.182-59.418,29.033-19.812,58.533-38.384,87.683-55.2,15.3-8.825,30.813-17.349,46.117-25.335,15.778-8.233,31.776-16.126,47.547-23.46,16.239-7.55,32.7-14.72,48.913-21.31,16.678-6.777,33.572-13.132,50.214-18.888,24.383-8.433,49.016-15.848,73.214-22.039,23.143-5.92,46.5-10.878,69.43-14.736,21.857-3.678,43.9-6.452,65.507-8.246,20.527-1.7,41.2-2.568,61.449-2.568,23.747,0,47.583,1.187,70.845,3.528,21.52,2.165,43.07,5.37,64.051,9.526,19.21,3.8,38.389,8.495,57,13.94,16.815,4.918,33.539,10.56,49.707,16.767a28.986,28.986,0,0,1,6.458,3.465,28.052,28.052,0,0,1,5.137,4.742,28.664,28.664,0,0,1,5.994,12.064,28.55,28.55,0,0,1-.168,13.4,27.917,27.917,0,0,1-2.558,6.461,28.762,28.762,0,0,1-4.3,5.889c-39.491,41.859-79.968,82.444-120.308,120.628-50.562,47.859-101,92.01-149.909,131.225-27.826,22.311-55.6,43.368-82.542,62.587-29.039,20.713-57.883,39.835-85.73,56.837-14.651,8.944-29.328,17.486-43.623,25.386-14.761,8.158-29.529,15.862-43.894,22.9-14.813,7.255-29.614,14-43.993,20.059C168.528-8.934,153.753-3.258,139.419,1.7,121.1,8.035,102.188,13.609,83.2,18.268c-18.238,4.473-37.033,8.223-55.863,11.143C9.3,32.209-9.251,34.321-27.8,35.689-45.509,36.995-63.687,37.658-81.827,37.658Z" fill="#fff" fill-rule="evenodd"/>
    </g>
    <g id="Path_230" data-name="Path 230">
      <path id="Path_346" data-name="Path 346" d="M32.209-1091.93c-224.168-152.764-355.632-382.6-423.277-534.646a27.4,27.4,0,0,1,13.982-36.139,27.4,27.4,0,0,1,10.926-2.339c149.876-1.182,372.355,21.26,547.977,140.926C374.766-1392.7,520.675-1138.794,599.871-975.293a27.406,27.406,0,0,1-12.629,36.641,27.41,27.41,0,0,1-10.642,2.736C442.28-929.482,238.73-951.276,32.209-1091.93Z" fill="none"/>
      <path id="Path_347" data-name="Path 347" d="M534.993-934.923c14.492,0,28.392-.36,41.607-.993a27.406,27.406,0,0,0,23.271-39.378c-79.2-163.5-225.106-417.41-418.055-548.835C10.418-1640.917-205.586-1665.1-355.2-1665.1c-3.686,0-7.358.015-10.963.043a27.4,27.4,0,0,0-24.908,38.479c67.646,152.048,199.109,381.882,423.277,534.646,186.2,126.815,369.976,157.007,502.785,157.007m0,1A880.715,880.715,0,0,1,303.36-964.906c-22.011-6-44.081-12.958-65.6-20.676-22.716-8.148-45.437-17.369-67.531-27.405-23.233-10.554-46.413-22.3-68.9-34.915-23.558-13.217-47.006-27.752-69.69-43.2-13.779-9.39-27.572-19.328-40.995-29.539-13.066-9.939-26.141-20.409-38.861-31.119-24.38-20.528-48.433-42.757-71.488-66.069-21.68-21.921-43.031-45.358-63.462-69.663-19.091-22.71-37.857-46.746-55.776-71.44-16.615-22.9-32.909-46.921-48.43-71.4-14.251-22.481-28.189-45.881-41.424-69.55-22.756-40.7-44.017-83.183-63.192-126.283a28.689,28.689,0,0,1-2.114-7.051,27.78,27.78,0,0,1-.242-7.007A28.52,28.52,0,0,1-389.913-1653a28.69,28.69,0,0,1,9.871-9.367,28.108,28.108,0,0,1,6.53-2.693,28.928,28.928,0,0,1,7.344-1c3.647-.028,7.339-.043,10.97-.043,41.646,0,83.035,1.887,123.016,5.608,22.853,2.126,45.6,4.89,67.6,8.213,23.769,3.59,47.3,7.927,69.933,12.891,24.255,5.32,48.13,11.5,70.963,18.373,24.309,7.317,48.094,15.613,70.693,24.66a751.239,751.239,0,0,1,69.122,31.75c11.412,5.978,22.705,12.3,33.564,18.787,11.139,6.655,22.135,13.674,32.683,20.861,11.859,8.078,23.862,16.847,35.674,26.064,11.485,8.96,23.1,18.59,34.535,28.621,21.871,19.191,43.922,40.611,65.542,63.665,20.273,21.619,40.68,45.221,60.652,70.15,18.6,23.219,37.287,48.163,55.537,74.141,16.855,23.99,33.743,49.438,50.2,75.636,15.032,23.936,30.047,49.048,44.626,74.639,24.824,43.572,48.924,89.433,71.63,136.31a28.937,28.937,0,0,1,2.352,7,28.135,28.135,0,0,1,.486,7.022,28.684,28.684,0,0,1-3.974,12.967,28.538,28.538,0,0,1-9.413,9.636,27.84,27.84,0,0,1-6.351,2.915,28.688,28.688,0,0,1-7.223,1.276C562.877-934.258,548.862-933.923,534.993-933.923Z" fill="#fff" fill-rule="evenodd"/>
    </g>
    <path id="Path_231" data-name="Path 231" d="M-514.145-1614.726c120.982-66.088,248.3-113.748,344.829-144.767a27.4,27.4,0,0,1,34.517,17.61,27.41,27.41,0,0,1,1.224,10.934c-12.392,133.9-62.41,332.411-230.535,517.257-46.7,51.315-97.542,95.92-150.033,134.656" fill="none" stroke="#fff" stroke-linecap="round" stroke-linejoin="round" stroke-width="1"/>
    <path id="Path_232" data-name="Path 232" d="M1383.005-1079.036c-152.737,112.714-319.42,175.737-438.5,209.779a27.394,27.394,0,0,1-33.831-18.877,27.385,27.385,0,0,1-.791-11.16c19.767-148.573,73.071-365.735,216.1-522.917,69.418-76.314,161.236-140.19,257.025-192.516" fill="none" stroke="#fff" stroke-linecap="round" stroke-linejoin="round" stroke-width="1"/>
    <path id="Path_233" data-name="Path 233" d="M-516.2-1665.1c247.929-97.366,506.827-79.833,668.558-52.6a27.4,27.4,0,0,1,22.4,31.621,27.4,27.4,0,0,1-4.1,10.414c-81.9,125.519-223.633,298.459-420.439,378.6-81.615,33.259-174.064,51.275-267.219,59.5" fill="none" stroke="#fff" stroke-linecap="round" stroke-linejoin="round" stroke-width="1"/>
    <path id="Path_234" data-name="Path 234" d="M1382.2-1237.563c-153.628,13.57-309.18.519-421.248-14.678a27.4,27.4,0,0,1-23.553-30.77,27.4,27.4,0,0,1,3.609-10.392c68.922-115.5,199.648-273.037,431.049-367.323q5.467-2.222,10.943-4.373" fill="none" stroke="#fff" stroke-linecap="round" stroke-linejoin="round" stroke-width="1"/>
  </g>
</svg>
