<svg xmlns="http://www.w3.org/2000/svg" width="1901.241" height="3800.865" viewBox="0 0 1901.241 3800.865">
  <g id="Group_1218" data-name="Group 1218" transform="translate(0.542 -862.734)">
    <g id="Group_891" data-name="Group 891" transform="translate(0 2763.214)" opacity="0.12">
      <g id="Path_197" data-name="Path 197" transform="translate(1763.463 1091.041)" fill="none" stroke-linecap="round" stroke-linejoin="round" fill-rule="evenodd">
        <path d="M-897.256,95.655c-271.017,11.744-513.876-93.733-659.06-175.078a27.4,27.4,0,0,1-3.068-45.733c119.374-90.631,311.055-205.779,523.371-214.993,233.236-10.158,502.075,105.964,663.364,189.572A27.4,27.4,0,0,1-367.73-105.1C-471.5-19.571-647.625,84.767-897.256,95.655Z" stroke="none"/>
        <path d="M -939.0610961914062 96.55604553222656 C -925.2105102539062 96.55604553222656 -911.2669677734375 96.26206207275391 -897.2562255859375 95.65491485595703 C -647.6246948242188 84.76737213134766 -471.4977722167969 -19.57062339782715 -367.7296142578125 -105.104621887207 C -352.5560913085938 -117.6109313964844 -355.1913146972656 -141.5272369384766 -372.6482238769531 -150.5778503417969 C -527.2833251953125 -230.7357635498047 -780.7523193359375 -340.7732849121094 -1006.948120117188 -340.7732849121094 C -1016.682556152344 -340.7732849121094 -1026.389282226562 -340.5688171386719 -1036.012573242188 -340.1496887207031 C -1248.328735351562 -330.9356994628906 -1440.009521484375 -215.7880096435547 -1559.3837890625 -125.1569290161133 C -1575.1103515625 -113.2186279296875 -1573.541259765625 -89.07431793212891 -1556.31591796875 -79.42339324951172 C -1418.63818359375 -2.283740758895874 -1193.130737304688 96.55604553222656 -939.0610961914062 96.55604553222656 M -939.0611572265625 97.55599212646484 C -969.8988647460938 97.55599212646484 -1001.495910644531 96.07491302490234 -1032.974975585938 93.15399169921875 C -1062.766723632812 90.38968658447266 -1093.225952148438 86.26399230957031 -1123.506591796875 80.89153289794922 C -1152.021606445312 75.83245086669922 -1181.109252929688 69.53814697265625 -1209.961303710938 62.18352890014648 C -1236.969360351562 55.29906845092773 -1264.451782226562 47.3121452331543 -1291.6455078125 38.44445419311523 C -1316.915649414062 30.2039909362793 -1342.559814453125 20.99999046325684 -1367.865478515625 11.08799171447754 C -1391.166870117188 1.961068153381348 -1414.739135742188 -7.984470367431641 -1437.927734375 -18.4721622467041 C -1478.0263671875 -36.60816192626953 -1518.022338867188 -56.82154846191406 -1556.8046875 -78.55093383789062 C -1558.97607421875 -79.76754760742188 -1560.96533203125 -81.24262237548828 -1562.717163085938 -82.93492889404297 C -1564.40380859375 -84.56462097167969 -1565.879760742188 -86.40415954589844 -1567.103881835938 -88.40277862548828 C -1569.465576171875 -92.25816345214844 -1570.881591796875 -96.71062469482422 -1571.19873046875 -101.2784729003906 C -1571.517578125 -105.872932434082 -1570.72119140625 -110.5112380981445 -1568.895141601562 -114.6923141479492 C -1567.949951171875 -116.8567810058594 -1566.73193359375 -118.8978576660156 -1565.275024414062 -120.7589340209961 C -1563.762084960938 -122.6913909912109 -1561.983276367188 -124.4390869140625 -1559.988403320312 -125.9533920288086 C -1526.544555664062 -151.3446197509766 -1492.106567382812 -175.0926208496094 -1457.631103515625 -196.5380096435547 C -1437.805053710938 -208.8706207275391 -1417.670532226562 -220.6197052001953 -1397.786865234375 -231.4586181640625 C -1376.244384765625 -243.2018585205078 -1354.43701171875 -254.1815490722656 -1332.970581054688 -264.0926208496094 C -1309.911743164062 -274.7389221191406 -1286.634521484375 -284.4344787597656 -1263.78564453125 -292.9100036621094 C -1239.41064453125 -301.9515380859375 -1214.86669921875 -309.8478698730469 -1190.83544921875 -316.3798522949219 C -1165.3447265625 -323.3086242675781 -1139.737182617188 -328.8904724121094 -1114.723876953125 -332.9706115722656 C -1101.694946289062 -335.0958557128906 -1088.555908203125 -336.8575439453125 -1075.671630859375 -338.2070922851562 C -1062.447265625 -339.5921630859375 -1049.11865234375 -340.5818481445312 -1036.055908203125 -341.1487731933594 C -1026.540649414062 -341.5630798339844 -1016.747314453125 -341.7732543945312 -1006.948059082031 -341.7732543945312 C -993.0442504882812 -341.7732543945312 -978.6582641601562 -341.3503112792969 -964.1900634765625 -340.5161743164062 C -950.1168212890625 -339.7049255371094 -935.5802612304688 -338.4823303222656 -920.983642578125 -336.8826293945312 C -893.036376953125 -333.8193969726562 -863.7582397460938 -329.2523193359375 -833.96240234375 -323.3080139160156 C -805.98974609375 -317.7275390625 -776.8516235351562 -310.7920227050781 -747.3574829101562 -302.69384765625 C -719.8485717773438 -295.1409301757812 -691.3463745117188 -286.389404296875 -662.6425170898438 -276.6820068359375 C -636.086669921875 -267.7010803222656 -608.716552734375 -257.685546875 -581.2925415039062 -246.9132385253906 C -556.1790161132812 -237.0486297607422 -530.4374389648438 -226.3207855224609 -504.7825317382812 -215.0276947021484 C -460.893310546875 -195.7080078125 -416.2820739746094 -174.3226165771484 -372.1880798339844 -151.4656982421875 C -369.9734802246094 -150.3175506591797 -367.9306945800781 -148.9046173095703 -366.1163940429688 -147.2661590576172 C -364.3685302734375 -145.6878509521484 -362.8237609863281 -143.8927764892578 -361.5245361328125 -141.9306182861328 C -359.0147094726562 -138.1400146484375 -357.4327087402344 -133.7246246337891 -356.949462890625 -129.1616973876953 C -356.4688415527344 -124.6240081787109 -357.0830078125 -120.0070877075195 -358.7257690429688 -115.8101654052734 C -359.5771484375 -113.6350860595703 -360.702392578125 -111.5710830688477 -362.070068359375 -109.6755447387695 C -363.490234375 -107.707389831543 -365.1803894042969 -105.9098587036133 -367.0936279296875 -104.3329315185547 C -471.0326843261719 -18.65800857543945 -647.37548828125 85.75753021240234 -897.2127075195312 96.65399169921875 C -911.0265502929688 97.25244903564453 -925.1062622070312 97.55599212646484 -939.0611572265625 97.55599212646484 Z" stroke="none" fill="#1c4040"/>
      </g>
      <path id="Path_198" data-name="Path 198" d="M-1301.033,283.251q-.16-6.332-.24-12.506c-.254-19.615,19.689-33.007,37.848-25.581,26.865,10.986,56.237,23.681,87.359,38.163" transform="translate(2005.498 1616.388)" fill="none" stroke="#f8e695" stroke-linecap="round" stroke-linejoin="round" stroke-width="1" fill-rule="evenodd"/>
      <path id="Path_199" data-name="Path 199" d="M-1176.181-735.62c165.088,76.825,379.336,203.944,529,393.046C-499.523-156.017-471.42,20.051-474.97,138.043a27.4,27.4,0,0,1-38.539,24.285C-694,81.777-993.493-72.514-1146.741-266.115-1267.564-418.77-1297.814-603.329-1301.148-735.7" transform="translate(2005.612 735.696)" fill="none" stroke="#f8e695" stroke-linecap="round" stroke-linejoin="round" stroke-width="1" fill-rule="evenodd"/>
      <path id="Path_200" data-name="Path 200" d="M-424.113,78.3c-192.4,36.079-375.806,17.514-500.749-5.83a27.4,27.4,0,0,1-17.544-42.354C-858.273-93.918-713.475-264.291-515.263-340.9a735.073,735.073,0,0,1,91.152-28.293" transform="translate(2324.11 1065.469)" fill="none" stroke="#e5876d" stroke-linecap="round" stroke-linejoin="round" stroke-width="1" fill-rule="evenodd"/>
      <path id="Path_201" data-name="Path 201" d="M-1671.83-355c202.855-49.406,442.526-28.132,598.006-4.208a27.405,27.405,0,0,1,19.2,41.514c-70.978,114.245-204.5,269.422-437.55,359.553A1019.757,1019.757,0,0,1-1671.832,92.5" transform="translate(1672.077 1051.278)" fill="none" stroke="#e5876d" stroke-linecap="round" stroke-linejoin="round" stroke-width="1" fill-rule="evenodd"/>
      <path id="Path_202" data-name="Path 202" d="M-949.229,577.419c-12.806-59.5-20.66-118.218-21.384-173.969-2.6-200.877,91.936-369.791,171.788-476.247,11.773-15.694,35.744-14.127,45.593,2.84,84.308,145.219,200.216,387,221.6,647.3" transform="translate(2302.975 1322.368)" fill="none" stroke="#f8e695" stroke-linecap="round" stroke-linejoin="round" stroke-width="1" fill-rule="evenodd"/>
      <path id="Path_203" data-name="Path 203" d="M-541.785-735.655q2.881,35.051,3.383,70.491c3.072,237.9-82.145,394.513-156.981,485.8a27.4,27.4,0,0,1-45.35-4.29c-72.615-134.695-174.744-347.932-218.65-551.933" transform="translate(2313.128 735.733)" fill="none" stroke="#f8e695" stroke-linecap="round" stroke-linejoin="round" stroke-width="1" fill-rule="evenodd"/>
      <path id="Path_204" data-name="Path 204" d="M-1201.764,371.055c179.171-130.876,438.24-195.309,605.44-225.109a27.405,27.405,0,0,1,31.588,33.081,880.15,880.15,0,0,1-68.719,192.1" transform="translate(2095.037 1528.586)" fill="none" stroke="#e5876d" stroke-linecap="round" stroke-linejoin="round" stroke-width="1" fill-rule="evenodd"/>
      <path id="Path_205" data-name="Path 205" d="M-481.15-735.619c-47.05,95.033-119.044,197.158-229.169,289.552-207.857,174.261-464.736,238.337-629.427,262.277a27.4,27.4,0,0,1-30.29-34.413C-1330.5-362.775-1248.523-570.8-1085.7-707.346q17.48-14.667,36.242-28.347" transform="translate(1942.731 735.699)" fill="none" stroke="#e5876d" stroke-linecap="round" stroke-linejoin="round" stroke-width="1" fill-rule="evenodd"/>
      <path id="Path_206" data-name="Path 206" d="M-466.315,385.13c-171.911-33.778-319.655-103.3-420.205-160.739a27.4,27.4,0,0,1-2.688-45.756C-788.7,103.639-637.437,11.9-466.315-20.426" transform="translate(2366.313 1379.284)" fill="none" stroke="#1c4040" stroke-linecap="round" stroke-linejoin="round" stroke-width="1" fill-rule="evenodd"/>
      <path id="Path_207" data-name="Path 207" d="M-1671.834-14.753a679,679,0,0,1,102.248-11.572c233.312-8.218,501.176,110.134,661.765,195.081a27.4,27.4,0,0,1,4.54,45.513c-104.475,84.668-281.464,187.537-531.179,196.348-82.46,2.886-162.226-5.05-237.374-19.815" transform="translate(1672.075 1373.611)" fill="none" stroke="#1c4040" stroke-linecap="round" stroke-linejoin="round" stroke-width="1" fill-rule="evenodd"/>
      <g id="Path_208" data-name="Path 208" transform="translate(2012.37 1048.884)" fill="none" stroke-linecap="round" stroke-linejoin="round" fill-rule="evenodd">
        <path d="M-1245.124,324.76c-78.157-220-45.977-511.072-13.38-689.8a27.406,27.406,0,0,1,42.031-18.044c112.233,74.118,263.648,211.892,347.28,447.353,90.692,255.629,61.015,518.711,25.925,681.39a27.4,27.4,0,0,1-42.825,16.365C-1007.749,674.488-1174.042,525.02-1245.124,324.76Z" stroke="none"/>
        <path d="M -870.0886840820312 767.2332153320312 C -857.8451538085938 767.2332153320312 -846.1460571289062 759.00634765625 -843.2680053710938 745.6629028320312 C -808.1773071289062 582.9844360351562 -778.500732421875 319.9024353027344 -869.192626953125 64.27330017089844 C -952.8247680664062 -171.1878356933594 -1104.239624023438 -308.9619750976562 -1216.473022460938 -383.0801391601562 C -1221.189086914062 -386.1946716308594 -1226.371704101562 -387.6256713867188 -1231.451171875 -387.6256713867188 C -1244.044555664062 -387.6256713867188 -1255.988647460938 -378.8199157714844 -1258.504028320312 -365.0359802246094 C -1291.099975585938 -186.3119812011719 -1323.28076171875 104.7575912475586 -1245.123413085938 324.7601623535156 C -1174.04150390625 525.0201416015625 -1007.749450683594 674.4876098632812 -886.0928955078125 762.0277099609375 C -881.1405639648438 765.5910034179688 -875.5611572265625 767.2332153320312 -870.0886840820312 767.2332153320312 M -870.0887451171875 768.2332763671875 C -876.03662109375 768.2332763671875 -881.7727661132812 766.3681640625 -886.6768798828125 762.8394165039062 C -920.759765625 738.3145751953125 -953.5632934570312 712.357421875 -984.1761474609375 685.6893310546875 C -1001.780883789062 670.3531494140625 -1018.917907714844 654.551025390625 -1035.111450195312 638.7217407226562 C -1052.655883789062 621.5721435546875 -1069.547973632812 603.9453125 -1085.318603515625 586.3308715820312 C -1102.259033203125 567.41015625 -1118.354736328125 548.001708984375 -1133.158447265625 528.6448974609375 C -1148.950805664062 507.9954528808594 -1163.698120117188 486.8484497070312 -1176.99072265625 465.7914428710938 C -1191.090576171875 443.4555969238281 -1203.937377929688 420.6131591796875 -1215.174194335938 397.8984375 C -1221.027221679688 386.0668640136719 -1226.565185546875 374.0233154296875 -1231.634155273438 362.102294921875 C -1236.837036132812 349.8668823242188 -1241.692504882812 337.4157409667969 -1246.06591796875 325.0947265625 C -1250.86962890625 311.5728759765625 -1255.380615234375 297.4082946777344 -1259.473754882812 282.994873046875 C -1263.453125 268.9814453125 -1267.146484375 254.348876953125 -1270.451171875 239.5034484863281 C -1276.7734375 211.1015930175781 -1281.925170898438 180.7933044433594 -1285.76318359375 149.4204406738281 C -1289.362060546875 120.0027313232422 -1291.896850585938 88.90515899658203 -1293.29736328125 56.99187469482422 C -1294.6015625 27.27030372619629 -1294.954467773438 -3.894411087036133 -1294.346069335938 -35.63655471801758 C -1293.7841796875 -64.94955444335938 -1292.389282226562 -95.45941162109375 -1290.2001953125 -126.3185501098633 C -1288.2001953125 -154.5105590820312 -1285.491455078125 -183.6432647705078 -1282.149169921875 -212.9074096679688 C -1276.461059570312 -262.7117004394531 -1268.836547851562 -313.95556640625 -1259.48779296875 -365.2154235839844 C -1258.8544921875 -368.6856994628906 -1257.628051757812 -371.9434204101562 -1255.842651367188 -374.8979797363281 C -1254.139282226562 -377.7164001464844 -1251.96630859375 -380.19970703125 -1249.383911132812 -382.2788391113281 C -1244.300170898438 -386.3717041015625 -1237.931518554688 -388.6257019042969 -1231.451171875 -388.6257019042969 C -1225.958618164062 -388.6257019042969 -1220.588745117188 -386.9965515136719 -1215.921875 -383.91455078125 C -1103.517211914062 -309.6832580566406 -951.9554443359375 -171.7281188964844 -868.2503051757812 63.9385871887207 C -862.6759033203125 79.65101623535156 -857.414306640625 95.81444549560547 -852.6117553710938 111.9800186157227 C -847.9373168945312 127.7144470214844 -843.5694580078125 143.8827362060547 -839.6294555664062 160.0360107421875 C -832.077880859375 190.9951629638672 -825.7957763671875 223.1340179443359 -820.9575805664062 255.5597381591797 C -816.408447265625 286.0475769042969 -813.0195922851562 317.56787109375 -810.8848876953125 349.2453002929688 C -808.8904418945312 378.8415832519531 -807.9406127929688 409.3182983398438 -808.0618896484375 439.8285827636719 C -808.1741943359375 468.1131591796875 -809.2095947265625 497.1210327148438 -811.1393432617188 526.046142578125 C -812.9107666015625 552.5984497070312 -815.4776000976562 579.7122802734375 -818.7687377929688 606.635009765625 C -824.4210205078125 652.873291015625 -832.3348999023438 699.7200317382812 -842.2904663085938 745.8737182617188 C -843.0153198242188 749.23388671875 -844.2998657226562 752.3721313476562 -846.1085815429688 755.201171875 C -847.8340454101562 757.8997192382812 -850.0026245117188 760.2688598632812 -852.554443359375 762.2428588867188 C -857.5481567382812 766.1058959960938 -863.7753295898438 768.2332763671875 -870.0887451171875 768.2332763671875 Z" stroke="none" fill="#4b72aa"/>
      </g>
      <g id="Path_209" data-name="Path 209" transform="translate(1734.19 1329.984)" fill="none" stroke-linecap="round" stroke-linejoin="round" fill-rule="evenodd">
        <path d="M-1078.1,469.107c-189.86,65.666-379.937,29.08-506.111-13.222-18.6-6.237-24.654-29.485-11.65-44.172,121.313-137,339.672-345.707,610.557-439.4,224.85-77.768,400.32-46.153,510.523-3.839a27.4,27.4,0,0,1,10.2,44.4C-600.222,156.646-844.755,388.387-1078.1,469.107Z" stroke="none"/>
        <path d="M -1299.020629882812 505.00927734375 C -1227.97509765625 505.00927734375 -1153.018920898438 495.0184631347656 -1078.1015625 469.1071472167969 C -844.7549438476562 388.3872985839844 -600.2221069335938 156.6460266113281 -464.5870666503906 12.87416172027588 C -451.1879272460938 -1.32855224609375 -456.5547790527344 -24.52298164367676 -474.7832336425781 -31.52183723449707 C -535.9852905273438 -55.02121353149414 -617.2916870117188 -75.21710205078125 -716.0324096679688 -75.21710205078125 C -795.0879516601562 -75.21710205078125 -885.3284912109375 -62.26107025146484 -985.3062133789062 -27.68240928649902 C -1256.190673828125 66.00544738769531 -1474.5498046875 274.7118835449219 -1595.86279296875 411.712890625 C -1608.866455078125 426.4000244140625 -1602.811889648438 449.6477355957031 -1584.212890625 455.8847351074219 C -1507.826293945312 481.4949645996094 -1408.02294921875 505.00927734375 -1299.020629882812 505.00927734375 M -1299.020629882812 506.0093078613281 C -1325.147827148438 506.0093078613281 -1352.031616210938 504.6368713378906 -1378.925537109375 501.9300231933594 C -1403.608276367188 499.4457397460938 -1428.878051757812 495.7796020507812 -1454.033081054688 491.0335998535156 C -1497.266845703125 482.8764343261719 -1541.172485351562 471.3697204589844 -1584.53076171875 456.8328857421875 C -1586.872314453125 456.0475769042969 -1589.085083007812 454.9777221679688 -1591.107421875 453.6528625488281 C -1593.055053710938 452.3770141601562 -1594.83740234375 450.8577270507812 -1596.40478515625 449.1376037597656 C -1599.42822265625 445.8193054199219 -1601.647705078125 441.7420043945312 -1602.822875976562 437.346435546875 C -1604.008422851562 432.9134521484375 -1604.115966796875 428.22216796875 -1603.13427734375 423.7801513671875 C -1602.626098632812 421.4815979003906 -1601.829223632812 419.250732421875 -1600.765625 417.1495971679688 C -1599.661499023438 414.9684448242188 -1598.263793945312 412.9162902832031 -1596.611450195312 411.0500183105469 C -1561.875732421875 371.8222961425781 -1525.357788085938 333.6910095214844 -1488.071899414062 297.7153015136719 C -1466.200561523438 276.6124572753906 -1443.785888671875 255.9933013916016 -1421.450927734375 236.4305877685547 C -1397.02001953125 215.0320129394531 -1372.068603515625 194.3587341308594 -1347.289794921875 174.9850158691406 C -1320.471801757812 154.0170135498047 -1293.158325195312 134.02587890625 -1266.10791015625 115.5671615600586 C -1237.075561523438 95.75572967529297 -1207.57470703125 77.18330383300781 -1178.425048828125 60.3657341003418 C -1163.128540039062 51.54044723510742 -1147.6123046875 43.01644897460938 -1132.30810546875 35.03044891357422 C -1116.529541015625 26.79701995849609 -1100.5322265625 18.90401840209961 -1084.760375976562 11.57059097290039 C -1068.521606445312 4.019876480102539 -1052.064819335938 -3.149980783462524 -1035.847045898438 -9.740123748779297 C -1019.169494628906 -16.51712417602539 -1002.275085449219 -22.87169456481934 -985.633056640625 -28.6275520324707 C -961.2499389648438 -37.06069564819336 -936.6172485351562 -44.4756965637207 -912.4190673828125 -50.66640853881836 C -889.2759399414062 -56.58726501464844 -865.9163818359375 -61.54526519775391 -842.9893798828125 -65.40298461914062 C -821.1316528320312 -69.08069610595703 -799.0916748046875 -71.85498046875 -777.4813842773438 -73.64897918701172 C -756.9545288085938 -75.35312652587891 -736.2800903320312 -76.21712493896484 -716.0323486328125 -76.21712493896484 C -692.28564453125 -76.21712493896484 -668.449951171875 -75.03026580810547 -645.1873779296875 -72.68927001953125 C -623.667236328125 -70.52383422851562 -602.1173706054688 -67.31855010986328 -581.1365356445312 -63.16269683837891 C -561.9266357421875 -59.35769653320312 -542.7474975585938 -54.66755294799805 -524.1317749023438 -49.22283935546875 C -507.3160705566406 -44.3045539855957 -490.5922241210938 -38.66312408447266 -474.4248046875 -32.45541000366211 C -472.1133728027344 -31.5679817199707 -469.9403686523438 -30.40226745605469 -467.9662170410156 -28.99069595336914 C -466.0637817382812 -27.63040924072266 -464.3355102539062 -26.03483772277832 -462.8294982910156 -24.2485523223877 C -459.9196472167969 -20.79683876037598 -457.8468017578125 -16.62483787536621 -456.8352355957031 -12.18355274200439 C -455.8280639648438 -7.762123584747314 -455.8865051269531 -3.130266666412354 -457.0039367675781 1.211304903030396 C -457.5829467773438 3.460447788238525 -458.4436645507812 5.634161949157715 -459.5622253417969 7.672162055969238 C -460.7230834960938 9.787161827087402 -462.1689453125 11.7683048248291 -463.8596496582031 13.56044769287109 C -503.3499450683594 55.41958999633789 -543.8275146484375 96.00516510009766 -584.1679077148438 134.1893005371094 C -634.7296752929688 182.048583984375 -685.1663818359375 226.1993103027344 -734.0769653320312 265.4153137207031 C -761.9026489257812 287.7257385253906 -789.6739501953125 308.7830200195312 -816.6192016601562 328.0023193359375 C -845.658203125 348.7148742675781 -874.5020751953125 367.8373107910156 -902.349365234375 384.8384399414062 C -917.00048828125 393.7831726074219 -931.67724609375 402.3243103027344 -945.9721069335938 410.2247314453125 C -960.73291015625 418.3827209472656 -975.501220703125 426.0868835449219 -989.8668212890625 433.1228637695312 C -1004.679382324219 440.3778686523438 -1019.480529785156 447.1268615722656 -1033.859130859375 453.1823120117188 C -1048.665649414062 459.4180297851562 -1063.44091796875 465.0938720703125 -1077.774658203125 470.0521545410156 C -1096.08984375 476.3868713378906 -1115.005737304688 481.9608764648438 -1133.996948242188 486.6194458007812 C -1152.234130859375 491.093017578125 -1171.029052734375 494.8423156738281 -1189.859741210938 497.7631530761719 C -1207.8955078125 500.5605773925781 -1226.444458007812 502.6727294921875 -1244.991455078125 504.0405883789062 C -1262.702514648438 505.3470153808594 -1280.880615234375 506.0093078613281 -1299.020629882812 506.0093078613281 Z" stroke="none" fill="#f8e695"/>
      </g>
      <g id="Path_210" data-name="Path 210" transform="translate(1730.472 798.8)" fill="none" stroke-linecap="round" stroke-linejoin="round" fill-rule="evenodd">
        <path d="M-1181.268-92.4c-224.169-152.763-355.632-382.6-423.277-534.647a27.4,27.4,0,0,1,24.908-38.478c149.876-1.182,372.355,21.262,547.977,140.926C-838.71-393.168-692.8-139.26-613.6,24.241a27.4,27.4,0,0,1-23.271,39.377C-771.2,70.055-974.746,48.258-1181.268-92.4Z" stroke="none"/>
        <path d="M -678.49072265625 64.61194610595703 C -663.9979248046875 64.61194610595703 -650.0910034179688 64.25163269042969 -636.8753662109375 63.61836242675781 C -617.2355346679688 62.67786407470703 -605.0331420898438 41.93786239624023 -613.6048583984375 24.24148941040039 C -692.8013916015625 -139.2596435546875 -838.7102661132812 -393.1676330566406 -1031.66015625 -524.5947875976562 C -1203.058349609375 -641.3804931640625 -1419.062866210938 -665.5638427734375 -1568.675048828125 -665.5638427734375 C -1572.361572265625 -665.5638427734375 -1576.032836914062 -665.549072265625 -1579.636962890625 -665.5206298828125 C -1599.381591796875 -665.36474609375 -1612.569946289062 -645.0826416015625 -1604.545288085938 -627.0423583984375 C -1536.899658203125 -474.9912719726562 -1405.4365234375 -245.1592559814453 -1181.267822265625 -92.39575958251953 C -995.0656127929688 34.41970443725586 -811.2998657226562 64.61194610595703 -678.49072265625 64.61194610595703 M -678.4907836914062 65.61199188232422 C -756.7900390625 65.61199188232422 -834.7212524414062 55.18774032592773 -910.1199951171875 34.62873840332031 C -932.130615234375 28.62698936462402 -954.1997680664062 21.67086410522461 -975.7145385742188 13.95323944091797 C -998.4303588867188 5.804738998413086 -1021.150756835938 -3.415885925292969 -1043.244750976562 -13.45251083374023 C -1066.4765625 -24.00613594055176 -1089.65625 -35.75313568115234 -1112.140258789062 -48.36725997924805 C -1135.69873046875 -61.58426284790039 -1159.14599609375 -76.11951446533203 -1181.830688476562 -91.56925964355469 C -1195.609497070312 -100.9590072631836 -1209.401977539062 -110.8973846435547 -1222.825561523438 -121.1083831787109 C -1235.891235351562 -131.0472564697266 -1248.9658203125 -141.5171356201172 -1261.68603515625 -152.2272644042969 C -1286.066772460938 -172.7553863525391 -1310.119018554688 -194.984130859375 -1333.174438476562 -218.2960052490234 C -1354.85400390625 -240.2167663574219 -1376.205688476562 -263.6546325683594 -1396.63623046875 -287.9586486816406 C -1415.727416992188 -310.6690063476562 -1434.493041992188 -334.7050170898438 -1452.411987304688 -359.3988952636719 C -1469.027221679688 -382.296142578125 -1485.321533203125 -406.3193969726562 -1500.842163085938 -430.801513671875 C -1515.093994140625 -453.2823791503906 -1529.03125 -476.682373046875 -1542.2666015625 -500.3516235351562 C -1565.023193359375 -541.04736328125 -1586.2841796875 -583.5355224609375 -1605.458862304688 -626.6358642578125 C -1606.470458984375 -628.91015625 -1607.181518554688 -631.2822875976562 -1607.572265625 -633.6865234375 C -1607.948486328125 -636.0016479492188 -1608.030151367188 -638.3587646484375 -1607.815063476562 -640.6925048828125 C -1607.400146484375 -645.1948852539062 -1605.870239257812 -649.609375 -1603.390991210938 -653.458984375 C -1600.8974609375 -657.3306274414062 -1597.48388671875 -660.5701293945312 -1593.519287109375 -662.827392578125 C -1591.466918945312 -663.9959106445312 -1589.269653320312 -664.9024047851562 -1586.98876953125 -665.5216064453125 C -1584.620361328125 -666.1647338867188 -1582.149536132812 -666.5009155273438 -1579.644897460938 -666.5206298828125 C -1575.996948242188 -666.5493774414062 -1572.30615234375 -666.5639038085938 -1568.675048828125 -666.5639038085938 C -1527.029541015625 -666.5639038085938 -1485.640869140625 -664.6771240234375 -1445.659057617188 -660.9561157226562 C -1422.806640625 -658.8294067382812 -1400.061767578125 -656.0657348632812 -1378.05615234375 -652.7422485351562 C -1354.286987304688 -649.1524047851562 -1330.758178710938 -644.8151245117188 -1308.123168945312 -639.8507690429688 C -1283.868286132812 -634.5311279296875 -1259.992797851562 -628.349609375 -1237.159790039062 -621.477783203125 C -1212.850463867188 -614.1614990234375 -1189.06591796875 -605.864990234375 -1166.466552734375 -596.8184814453125 C -1142.534545898438 -587.2386474609375 -1119.278564453125 -576.5562744140625 -1097.344604492188 -565.068115234375 C -1085.931884765625 -559.0906372070312 -1074.63916015625 -552.77001953125 -1063.780029296875 -546.281982421875 C -1052.641723632812 -539.6272583007812 -1041.645629882812 -532.608642578125 -1031.097045898438 -525.421142578125 C -1019.237915039062 -517.34326171875 -1007.235290527344 -508.5741271972656 -995.4229125976562 -499.3572692871094 C -983.9384155273438 -490.3961486816406 -972.3191528320312 -480.7665100097656 -960.8878784179688 -470.7357482910156 C -939.0173950195312 -451.5447692871094 -916.9657592773438 -430.1243896484375 -895.3458862304688 -407.0696411132812 C -875.072509765625 -385.4510192871094 -854.666259765625 -361.8489990234375 -834.6939086914062 -336.9193725585938 C -816.09228515625 -313.7007751464844 -797.4068603515625 -288.7563781738281 -779.15673828125 -262.7792663574219 C -762.302001953125 -238.7882537841797 -745.4136352539062 -213.3405151367188 -728.9609985351562 -187.1430053710938 C -713.9285278320312 -163.2068786621094 -698.9140014648438 -138.0947570800781 -684.3346557617188 -112.5042572021484 C -659.5106201171875 -68.93238830566406 -635.4110107421875 -23.07113647460938 -612.7048950195312 23.80561447143555 C -611.6176147460938 26.05023956298828 -610.826416015625 28.40436363220215 -610.35302734375 30.80261421203613 C -609.8971557617188 33.11273956298828 -609.7335205078125 35.47536468505859 -609.8667602539062 37.82461547851562 C -610.1240234375 42.36311340332031 -611.4984130859375 46.84736251831055 -613.8414916992188 50.79236221313477 C -616.171875 54.71611404418945 -619.4268798828125 58.04811477661133 -623.2547607421875 60.42811584472656 C -625.238525390625 61.66161346435547 -627.375244140625 62.64211273193359 -629.6055297851562 63.34248733520508 C -631.921142578125 64.06974029541016 -634.3510131835938 64.49861145019531 -636.8275146484375 64.61724090576172 C -650.6031494140625 65.27723693847656 -664.6206665039062 65.61199188232422 -678.4907836914062 65.61199188232422 Z" stroke="none" fill="#1c4040"/>
      </g>
      <path id="Path_211" data-name="Path 211" d="M-1670.461-569.848c120.98-66.086,248.3-113.748,344.83-144.765a27.4,27.4,0,0,1,35.741,28.542c-12.392,133.9-62.41,332.413-230.537,517.26-46.7,51.313-97.54,95.918-150.031,134.655" transform="translate(1673.311 753.455)" fill="none" stroke="#1c4040" stroke-linecap="round" stroke-linejoin="round" stroke-width="1" fill-rule="evenodd"/>
      <path id="Path_212" data-name="Path 212" d="M-447.646-103.359C-600.381,9.357-767.064,72.381-886.148,106.423A27.4,27.4,0,0,1-920.77,76.384C-901-72.187-847.7-289.349-704.674-446.534c69.418-76.312,161.235-140.191,257.026-192.516" transform="translate(2347.646 822.656)" fill="none" stroke="#1c4040" stroke-linecap="round" stroke-linejoin="round" stroke-width="1" fill-rule="evenodd"/>
      <path id="Path_213" data-name="Path 213" d="M-1671.161-630.522c247.93-97.366,506.828-79.831,668.559-52.6a27.393,27.393,0,0,1,18.3,42.033c-81.9,125.524-223.629,298.458-420.437,378.6-81.615,33.26-174.064,51.275-267.22,59.5" transform="translate(1671.961 763.756)" fill="none" stroke="#4b72aa" stroke-linecap="round" stroke-linejoin="round" stroke-width="1" fill-rule="evenodd"/>
      <path id="Path_214" data-name="Path 214" d="M-461.468-238.026c-153.628,13.568-309.18.519-421.251-14.68a27.4,27.4,0,0,1-19.942-41.163c68.922-115.5,199.648-273.037,431.049-367.321q5.468-2.225,10.941-4.375" transform="translate(2360.668 798.799)" fill="none" stroke="#4b72aa" stroke-linecap="round" stroke-linejoin="round" stroke-width="1" fill-rule="evenodd"/>
    </g>
    <g id="Group_890" data-name="Group 890" transform="translate(0 863.427)" opacity="0.12">
      <g id="Path_197-2" data-name="Path 197" transform="translate(1763.463 1091.041)" fill="none" stroke-linecap="round" stroke-linejoin="round" fill-rule="evenodd">
        <path d="M-897.256,95.655c-271.017,11.744-513.876-93.733-659.06-175.078a27.4,27.4,0,0,1-3.068-45.733c119.374-90.631,311.055-205.779,523.371-214.993,233.236-10.158,502.075,105.964,663.364,189.572A27.4,27.4,0,0,1-367.73-105.1C-471.5-19.571-647.625,84.767-897.256,95.655Z" stroke="none"/>
        <path d="M -939.0610961914062 96.55604553222656 C -925.2105102539062 96.55604553222656 -911.2669677734375 96.26206207275391 -897.2562255859375 95.65491485595703 C -647.6246948242188 84.76737213134766 -471.4977722167969 -19.57062339782715 -367.7296142578125 -105.104621887207 C -352.5560913085938 -117.6109313964844 -355.1913146972656 -141.5272369384766 -372.6482238769531 -150.5778503417969 C -527.2833251953125 -230.7357635498047 -780.7523193359375 -340.7732849121094 -1006.948120117188 -340.7732849121094 C -1016.682556152344 -340.7732849121094 -1026.389282226562 -340.5688171386719 -1036.012573242188 -340.1496887207031 C -1248.328735351562 -330.9356994628906 -1440.009521484375 -215.7880096435547 -1559.3837890625 -125.1569290161133 C -1575.1103515625 -113.2186279296875 -1573.541259765625 -89.07431793212891 -1556.31591796875 -79.42339324951172 C -1418.63818359375 -2.283740758895874 -1193.130737304688 96.55604553222656 -939.0610961914062 96.55604553222656 M -939.0611572265625 97.55599212646484 C -969.8988647460938 97.55599212646484 -1001.495910644531 96.07491302490234 -1032.974975585938 93.15399169921875 C -1062.766723632812 90.38968658447266 -1093.225952148438 86.26399230957031 -1123.506591796875 80.89153289794922 C -1152.021606445312 75.83245086669922 -1181.109252929688 69.53814697265625 -1209.961303710938 62.18352890014648 C -1236.969360351562 55.29906845092773 -1264.451782226562 47.3121452331543 -1291.6455078125 38.44445419311523 C -1316.915649414062 30.2039909362793 -1342.559814453125 20.99999046325684 -1367.865478515625 11.08799171447754 C -1391.166870117188 1.961068153381348 -1414.739135742188 -7.984470367431641 -1437.927734375 -18.4721622467041 C -1478.0263671875 -36.60816192626953 -1518.022338867188 -56.82154846191406 -1556.8046875 -78.55093383789062 C -1558.97607421875 -79.76754760742188 -1560.96533203125 -81.24262237548828 -1562.717163085938 -82.93492889404297 C -1564.40380859375 -84.56462097167969 -1565.879760742188 -86.40415954589844 -1567.103881835938 -88.40277862548828 C -1569.465576171875 -92.25816345214844 -1570.881591796875 -96.71062469482422 -1571.19873046875 -101.2784729003906 C -1571.517578125 -105.872932434082 -1570.72119140625 -110.5112380981445 -1568.895141601562 -114.6923141479492 C -1567.949951171875 -116.8567810058594 -1566.73193359375 -118.8978576660156 -1565.275024414062 -120.7589340209961 C -1563.762084960938 -122.6913909912109 -1561.983276367188 -124.4390869140625 -1559.988403320312 -125.9533920288086 C -1526.544555664062 -151.3446197509766 -1492.106567382812 -175.0926208496094 -1457.631103515625 -196.5380096435547 C -1437.805053710938 -208.8706207275391 -1417.670532226562 -220.6197052001953 -1397.786865234375 -231.4586181640625 C -1376.244384765625 -243.2018585205078 -1354.43701171875 -254.1815490722656 -1332.970581054688 -264.0926208496094 C -1309.911743164062 -274.7389221191406 -1286.634521484375 -284.4344787597656 -1263.78564453125 -292.9100036621094 C -1239.41064453125 -301.9515380859375 -1214.86669921875 -309.8478698730469 -1190.83544921875 -316.3798522949219 C -1165.3447265625 -323.3086242675781 -1139.737182617188 -328.8904724121094 -1114.723876953125 -332.9706115722656 C -1101.694946289062 -335.0958557128906 -1088.555908203125 -336.8575439453125 -1075.671630859375 -338.2070922851562 C -1062.447265625 -339.5921630859375 -1049.11865234375 -340.5818481445312 -1036.055908203125 -341.1487731933594 C -1026.540649414062 -341.5630798339844 -1016.747314453125 -341.7732543945312 -1006.948059082031 -341.7732543945312 C -993.0442504882812 -341.7732543945312 -978.6582641601562 -341.3503112792969 -964.1900634765625 -340.5161743164062 C -950.1168212890625 -339.7049255371094 -935.5802612304688 -338.4823303222656 -920.983642578125 -336.8826293945312 C -893.036376953125 -333.8193969726562 -863.7582397460938 -329.2523193359375 -833.96240234375 -323.3080139160156 C -805.98974609375 -317.7275390625 -776.8516235351562 -310.7920227050781 -747.3574829101562 -302.69384765625 C -719.8485717773438 -295.1409301757812 -691.3463745117188 -286.389404296875 -662.6425170898438 -276.6820068359375 C -636.086669921875 -267.7010803222656 -608.716552734375 -257.685546875 -581.2925415039062 -246.9132385253906 C -556.1790161132812 -237.0486297607422 -530.4374389648438 -226.3207855224609 -504.7825317382812 -215.0276947021484 C -460.893310546875 -195.7080078125 -416.2820739746094 -174.3226165771484 -372.1880798339844 -151.4656982421875 C -369.9734802246094 -150.3175506591797 -367.9306945800781 -148.9046173095703 -366.1163940429688 -147.2661590576172 C -364.3685302734375 -145.6878509521484 -362.8237609863281 -143.8927764892578 -361.5245361328125 -141.9306182861328 C -359.0147094726562 -138.1400146484375 -357.4327087402344 -133.7246246337891 -356.949462890625 -129.1616973876953 C -356.4688415527344 -124.6240081787109 -357.0830078125 -120.0070877075195 -358.7257690429688 -115.8101654052734 C -359.5771484375 -113.6350860595703 -360.702392578125 -111.5710830688477 -362.070068359375 -109.6755447387695 C -363.490234375 -107.707389831543 -365.1803894042969 -105.9098587036133 -367.0936279296875 -104.3329315185547 C -471.0326843261719 -18.65800857543945 -647.37548828125 85.75753021240234 -897.2127075195312 96.65399169921875 C -911.0265502929688 97.25244903564453 -925.1062622070312 97.55599212646484 -939.0611572265625 97.55599212646484 Z" stroke="none" fill="#1c4040"/>
      </g>
      <path id="Path_198-2" data-name="Path 198" d="M-1301.033,283.251q-.16-6.332-.24-12.506c-.254-19.615,19.689-33.007,37.848-25.581,26.865,10.986,56.237,23.681,87.359,38.163" transform="translate(2005.498 1616.388)" fill="none" stroke="#f8e695" stroke-linecap="round" stroke-linejoin="round" stroke-width="1" fill-rule="evenodd"/>
      <path id="Path_199-2" data-name="Path 199" d="M-1176.181-735.62c165.088,76.825,379.336,203.944,529,393.046C-499.523-156.017-471.42,20.051-474.97,138.043a27.4,27.4,0,0,1-38.539,24.285C-694,81.777-993.493-72.514-1146.741-266.115-1267.564-418.77-1297.814-603.329-1301.148-735.7" transform="translate(2005.612 735.696)" fill="none" stroke="#f8e695" stroke-linecap="round" stroke-linejoin="round" stroke-width="1" fill-rule="evenodd"/>
      <path id="Path_200-2" data-name="Path 200" d="M-424.113,78.3c-192.4,36.079-375.806,17.514-500.749-5.83a27.4,27.4,0,0,1-17.544-42.354C-858.273-93.918-713.475-264.291-515.263-340.9a735.073,735.073,0,0,1,91.152-28.293" transform="translate(2324.11 1065.469)" fill="none" stroke="#e5876d" stroke-linecap="round" stroke-linejoin="round" stroke-width="1" fill-rule="evenodd"/>
      <path id="Path_201-2" data-name="Path 201" d="M-1671.83-355c202.855-49.406,442.526-28.132,598.006-4.208a27.405,27.405,0,0,1,19.2,41.514c-70.978,114.245-204.5,269.422-437.55,359.553A1019.757,1019.757,0,0,1-1671.832,92.5" transform="translate(1672.077 1051.278)" fill="none" stroke="#e5876d" stroke-linecap="round" stroke-linejoin="round" stroke-width="1" fill-rule="evenodd"/>
      <path id="Path_202-2" data-name="Path 202" d="M-949.229,577.419c-12.806-59.5-20.66-118.218-21.384-173.969-2.6-200.877,91.936-369.791,171.788-476.247,11.773-15.694,35.744-14.127,45.593,2.84,84.308,145.219,200.216,387,221.6,647.3" transform="translate(2302.975 1322.368)" fill="none" stroke="#f8e695" stroke-linecap="round" stroke-linejoin="round" stroke-width="1" fill-rule="evenodd"/>
      <path id="Path_203-2" data-name="Path 203" d="M-541.785-735.655q2.881,35.051,3.383,70.491c3.072,237.9-82.145,394.513-156.981,485.8a27.4,27.4,0,0,1-45.35-4.29c-72.615-134.695-174.744-347.932-218.65-551.933" transform="translate(2313.128 735.733)" fill="none" stroke="#f8e695" stroke-linecap="round" stroke-linejoin="round" stroke-width="1" fill-rule="evenodd"/>
      <path id="Path_204-2" data-name="Path 204" d="M-1201.764,371.055c179.171-130.876,438.24-195.309,605.44-225.109a27.405,27.405,0,0,1,31.588,33.081,880.15,880.15,0,0,1-68.719,192.1" transform="translate(2095.037 1528.586)" fill="none" stroke="#e5876d" stroke-linecap="round" stroke-linejoin="round" stroke-width="1" fill-rule="evenodd"/>
      <path id="Path_205-2" data-name="Path 205" d="M-481.15-735.619c-47.05,95.033-119.044,197.158-229.169,289.552-207.857,174.261-464.736,238.337-629.427,262.277a27.4,27.4,0,0,1-30.29-34.413C-1330.5-362.775-1248.523-570.8-1085.7-707.346q17.48-14.667,36.242-28.347" transform="translate(1942.731 735.699)" fill="none" stroke="#e5876d" stroke-linecap="round" stroke-linejoin="round" stroke-width="1" fill-rule="evenodd"/>
      <path id="Path_206-2" data-name="Path 206" d="M-466.315,385.13c-171.911-33.778-319.655-103.3-420.205-160.739a27.4,27.4,0,0,1-2.688-45.756C-788.7,103.639-637.437,11.9-466.315-20.426" transform="translate(2366.313 1379.284)" fill="none" stroke="#1c4040" stroke-linecap="round" stroke-linejoin="round" stroke-width="1" fill-rule="evenodd"/>
      <path id="Path_207-2" data-name="Path 207" d="M-1671.834-14.753a679,679,0,0,1,102.248-11.572c233.312-8.218,501.176,110.134,661.765,195.081a27.4,27.4,0,0,1,4.54,45.513c-104.475,84.668-281.464,187.537-531.179,196.348-82.46,2.886-162.226-5.05-237.374-19.815" transform="translate(1672.075 1373.611)" fill="none" stroke="#1c4040" stroke-linecap="round" stroke-linejoin="round" stroke-width="1" fill-rule="evenodd"/>
      <g id="Path_208-2" data-name="Path 208" transform="translate(2012.37 1048.884)" fill="none" stroke-linecap="round" stroke-linejoin="round" fill-rule="evenodd">
        <path d="M-1245.124,324.76c-78.157-220-45.977-511.072-13.38-689.8a27.406,27.406,0,0,1,42.031-18.044c112.233,74.118,263.648,211.892,347.28,447.353,90.692,255.629,61.015,518.711,25.925,681.39a27.4,27.4,0,0,1-42.825,16.365C-1007.749,674.488-1174.042,525.02-1245.124,324.76Z" stroke="none"/>
        <path d="M -870.0886840820312 767.2332153320312 C -857.8451538085938 767.2332153320312 -846.1460571289062 759.00634765625 -843.2680053710938 745.6629028320312 C -808.1773071289062 582.9844360351562 -778.500732421875 319.9024353027344 -869.192626953125 64.27330017089844 C -952.8247680664062 -171.1878356933594 -1104.239624023438 -308.9619750976562 -1216.473022460938 -383.0801391601562 C -1221.189086914062 -386.1946716308594 -1226.371704101562 -387.6256713867188 -1231.451171875 -387.6256713867188 C -1244.044555664062 -387.6256713867188 -1255.988647460938 -378.8199157714844 -1258.504028320312 -365.0359802246094 C -1291.099975585938 -186.3119812011719 -1323.28076171875 104.7575912475586 -1245.123413085938 324.7601623535156 C -1174.04150390625 525.0201416015625 -1007.749450683594 674.4876098632812 -886.0928955078125 762.0277099609375 C -881.1405639648438 765.5910034179688 -875.5611572265625 767.2332153320312 -870.0886840820312 767.2332153320312 M -870.0887451171875 768.2332763671875 C -876.03662109375 768.2332763671875 -881.7727661132812 766.3681640625 -886.6768798828125 762.8394165039062 C -920.759765625 738.3145751953125 -953.5632934570312 712.357421875 -984.1761474609375 685.6893310546875 C -1001.780883789062 670.3531494140625 -1018.917907714844 654.551025390625 -1035.111450195312 638.7217407226562 C -1052.655883789062 621.5721435546875 -1069.547973632812 603.9453125 -1085.318603515625 586.3308715820312 C -1102.259033203125 567.41015625 -1118.354736328125 548.001708984375 -1133.158447265625 528.6448974609375 C -1148.950805664062 507.9954528808594 -1163.698120117188 486.8484497070312 -1176.99072265625 465.7914428710938 C -1191.090576171875 443.4555969238281 -1203.937377929688 420.6131591796875 -1215.174194335938 397.8984375 C -1221.027221679688 386.0668640136719 -1226.565185546875 374.0233154296875 -1231.634155273438 362.102294921875 C -1236.837036132812 349.8668823242188 -1241.692504882812 337.4157409667969 -1246.06591796875 325.0947265625 C -1250.86962890625 311.5728759765625 -1255.380615234375 297.4082946777344 -1259.473754882812 282.994873046875 C -1263.453125 268.9814453125 -1267.146484375 254.348876953125 -1270.451171875 239.5034484863281 C -1276.7734375 211.1015930175781 -1281.925170898438 180.7933044433594 -1285.76318359375 149.4204406738281 C -1289.362060546875 120.0027313232422 -1291.896850585938 88.90515899658203 -1293.29736328125 56.99187469482422 C -1294.6015625 27.27030372619629 -1294.954467773438 -3.894411087036133 -1294.346069335938 -35.63655471801758 C -1293.7841796875 -64.94955444335938 -1292.389282226562 -95.45941162109375 -1290.2001953125 -126.3185501098633 C -1288.2001953125 -154.5105590820312 -1285.491455078125 -183.6432647705078 -1282.149169921875 -212.9074096679688 C -1276.461059570312 -262.7117004394531 -1268.836547851562 -313.95556640625 -1259.48779296875 -365.2154235839844 C -1258.8544921875 -368.6856994628906 -1257.628051757812 -371.9434204101562 -1255.842651367188 -374.8979797363281 C -1254.139282226562 -377.7164001464844 -1251.96630859375 -380.19970703125 -1249.383911132812 -382.2788391113281 C -1244.300170898438 -386.3717041015625 -1237.931518554688 -388.6257019042969 -1231.451171875 -388.6257019042969 C -1225.958618164062 -388.6257019042969 -1220.588745117188 -386.9965515136719 -1215.921875 -383.91455078125 C -1103.517211914062 -309.6832580566406 -951.9554443359375 -171.7281188964844 -868.2503051757812 63.9385871887207 C -862.6759033203125 79.65101623535156 -857.414306640625 95.81444549560547 -852.6117553710938 111.9800186157227 C -847.9373168945312 127.7144470214844 -843.5694580078125 143.8827362060547 -839.6294555664062 160.0360107421875 C -832.077880859375 190.9951629638672 -825.7957763671875 223.1340179443359 -820.9575805664062 255.5597381591797 C -816.408447265625 286.0475769042969 -813.0195922851562 317.56787109375 -810.8848876953125 349.2453002929688 C -808.8904418945312 378.8415832519531 -807.9406127929688 409.3182983398438 -808.0618896484375 439.8285827636719 C -808.1741943359375 468.1131591796875 -809.2095947265625 497.1210327148438 -811.1393432617188 526.046142578125 C -812.9107666015625 552.5984497070312 -815.4776000976562 579.7122802734375 -818.7687377929688 606.635009765625 C -824.4210205078125 652.873291015625 -832.3348999023438 699.7200317382812 -842.2904663085938 745.8737182617188 C -843.0153198242188 749.23388671875 -844.2998657226562 752.3721313476562 -846.1085815429688 755.201171875 C -847.8340454101562 757.8997192382812 -850.0026245117188 760.2688598632812 -852.554443359375 762.2428588867188 C -857.5481567382812 766.1058959960938 -863.7753295898438 768.2332763671875 -870.0887451171875 768.2332763671875 Z" stroke="none" fill="#4b72aa"/>
      </g>
      <g id="Path_209-2" data-name="Path 209" transform="translate(1734.19 1329.984)" fill="none" stroke-linecap="round" stroke-linejoin="round" fill-rule="evenodd">
        <path d="M-1078.1,469.107c-189.86,65.666-379.937,29.08-506.111-13.222-18.6-6.237-24.654-29.485-11.65-44.172,121.313-137,339.672-345.707,610.557-439.4,224.85-77.768,400.32-46.153,510.523-3.839a27.4,27.4,0,0,1,10.2,44.4C-600.222,156.646-844.755,388.387-1078.1,469.107Z" stroke="none"/>
        <path d="M -1299.020629882812 505.00927734375 C -1227.97509765625 505.00927734375 -1153.018920898438 495.0184631347656 -1078.1015625 469.1071472167969 C -844.7549438476562 388.3872985839844 -600.2221069335938 156.6460266113281 -464.5870666503906 12.87416172027588 C -451.1879272460938 -1.32855224609375 -456.5547790527344 -24.52298164367676 -474.7832336425781 -31.52183723449707 C -535.9852905273438 -55.02121353149414 -617.2916870117188 -75.21710205078125 -716.0324096679688 -75.21710205078125 C -795.0879516601562 -75.21710205078125 -885.3284912109375 -62.26107025146484 -985.3062133789062 -27.68240928649902 C -1256.190673828125 66.00544738769531 -1474.5498046875 274.7118835449219 -1595.86279296875 411.712890625 C -1608.866455078125 426.4000244140625 -1602.811889648438 449.6477355957031 -1584.212890625 455.8847351074219 C -1507.826293945312 481.4949645996094 -1408.02294921875 505.00927734375 -1299.020629882812 505.00927734375 M -1299.020629882812 506.0093078613281 C -1325.147827148438 506.0093078613281 -1352.031616210938 504.6368713378906 -1378.925537109375 501.9300231933594 C -1403.608276367188 499.4457397460938 -1428.878051757812 495.7796020507812 -1454.033081054688 491.0335998535156 C -1497.266845703125 482.8764343261719 -1541.172485351562 471.3697204589844 -1584.53076171875 456.8328857421875 C -1586.872314453125 456.0475769042969 -1589.085083007812 454.9777221679688 -1591.107421875 453.6528625488281 C -1593.055053710938 452.3770141601562 -1594.83740234375 450.8577270507812 -1596.40478515625 449.1376037597656 C -1599.42822265625 445.8193054199219 -1601.647705078125 441.7420043945312 -1602.822875976562 437.346435546875 C -1604.008422851562 432.9134521484375 -1604.115966796875 428.22216796875 -1603.13427734375 423.7801513671875 C -1602.626098632812 421.4815979003906 -1601.829223632812 419.250732421875 -1600.765625 417.1495971679688 C -1599.661499023438 414.9684448242188 -1598.263793945312 412.9162902832031 -1596.611450195312 411.0500183105469 C -1561.875732421875 371.8222961425781 -1525.357788085938 333.6910095214844 -1488.071899414062 297.7153015136719 C -1466.200561523438 276.6124572753906 -1443.785888671875 255.9933013916016 -1421.450927734375 236.4305877685547 C -1397.02001953125 215.0320129394531 -1372.068603515625 194.3587341308594 -1347.289794921875 174.9850158691406 C -1320.471801757812 154.0170135498047 -1293.158325195312 134.02587890625 -1266.10791015625 115.5671615600586 C -1237.075561523438 95.75572967529297 -1207.57470703125 77.18330383300781 -1178.425048828125 60.3657341003418 C -1163.128540039062 51.54044723510742 -1147.6123046875 43.01644897460938 -1132.30810546875 35.03044891357422 C -1116.529541015625 26.79701995849609 -1100.5322265625 18.90401840209961 -1084.760375976562 11.57059097290039 C -1068.521606445312 4.019876480102539 -1052.064819335938 -3.149980783462524 -1035.847045898438 -9.740123748779297 C -1019.169494628906 -16.51712417602539 -1002.275085449219 -22.87169456481934 -985.633056640625 -28.6275520324707 C -961.2499389648438 -37.06069564819336 -936.6172485351562 -44.4756965637207 -912.4190673828125 -50.66640853881836 C -889.2759399414062 -56.58726501464844 -865.9163818359375 -61.54526519775391 -842.9893798828125 -65.40298461914062 C -821.1316528320312 -69.08069610595703 -799.0916748046875 -71.85498046875 -777.4813842773438 -73.64897918701172 C -756.9545288085938 -75.35312652587891 -736.2800903320312 -76.21712493896484 -716.0323486328125 -76.21712493896484 C -692.28564453125 -76.21712493896484 -668.449951171875 -75.03026580810547 -645.1873779296875 -72.68927001953125 C -623.667236328125 -70.52383422851562 -602.1173706054688 -67.31855010986328 -581.1365356445312 -63.16269683837891 C -561.9266357421875 -59.35769653320312 -542.7474975585938 -54.66755294799805 -524.1317749023438 -49.22283935546875 C -507.3160705566406 -44.3045539855957 -490.5922241210938 -38.66312408447266 -474.4248046875 -32.45541000366211 C -472.1133728027344 -31.5679817199707 -469.9403686523438 -30.40226745605469 -467.9662170410156 -28.99069595336914 C -466.0637817382812 -27.63040924072266 -464.3355102539062 -26.03483772277832 -462.8294982910156 -24.2485523223877 C -459.9196472167969 -20.79683876037598 -457.8468017578125 -16.62483787536621 -456.8352355957031 -12.18355274200439 C -455.8280639648438 -7.762123584747314 -455.8865051269531 -3.130266666412354 -457.0039367675781 1.211304903030396 C -457.5829467773438 3.460447788238525 -458.4436645507812 5.634161949157715 -459.5622253417969 7.672162055969238 C -460.7230834960938 9.787161827087402 -462.1689453125 11.7683048248291 -463.8596496582031 13.56044769287109 C -503.3499450683594 55.41958999633789 -543.8275146484375 96.00516510009766 -584.1679077148438 134.1893005371094 C -634.7296752929688 182.048583984375 -685.1663818359375 226.1993103027344 -734.0769653320312 265.4153137207031 C -761.9026489257812 287.7257385253906 -789.6739501953125 308.7830200195312 -816.6192016601562 328.0023193359375 C -845.658203125 348.7148742675781 -874.5020751953125 367.8373107910156 -902.349365234375 384.8384399414062 C -917.00048828125 393.7831726074219 -931.67724609375 402.3243103027344 -945.9721069335938 410.2247314453125 C -960.73291015625 418.3827209472656 -975.501220703125 426.0868835449219 -989.8668212890625 433.1228637695312 C -1004.679382324219 440.3778686523438 -1019.480529785156 447.1268615722656 -1033.859130859375 453.1823120117188 C -1048.665649414062 459.4180297851562 -1063.44091796875 465.0938720703125 -1077.774658203125 470.0521545410156 C -1096.08984375 476.3868713378906 -1115.005737304688 481.9608764648438 -1133.996948242188 486.6194458007812 C -1152.234130859375 491.093017578125 -1171.029052734375 494.8423156738281 -1189.859741210938 497.7631530761719 C -1207.8955078125 500.5605773925781 -1226.444458007812 502.6727294921875 -1244.991455078125 504.0405883789062 C -1262.702514648438 505.3470153808594 -1280.880615234375 506.0093078613281 -1299.020629882812 506.0093078613281 Z" stroke="none" fill="#f8e695"/>
      </g>
      <g id="Path_210-2" data-name="Path 210" transform="translate(1730.472 798.8)" fill="none" stroke-linecap="round" stroke-linejoin="round" fill-rule="evenodd">
        <path d="M-1181.268-92.4c-224.169-152.763-355.632-382.6-423.277-534.647a27.4,27.4,0,0,1,24.908-38.478c149.876-1.182,372.355,21.262,547.977,140.926C-838.71-393.168-692.8-139.26-613.6,24.241a27.4,27.4,0,0,1-23.271,39.377C-771.2,70.055-974.746,48.258-1181.268-92.4Z" stroke="none"/>
        <path d="M -678.49072265625 64.61194610595703 C -663.9979248046875 64.61194610595703 -650.0910034179688 64.25163269042969 -636.8753662109375 63.61836242675781 C -617.2355346679688 62.67786407470703 -605.0331420898438 41.93786239624023 -613.6048583984375 24.24148941040039 C -692.8013916015625 -139.2596435546875 -838.7102661132812 -393.1676330566406 -1031.66015625 -524.5947875976562 C -1203.058349609375 -641.3804931640625 -1419.062866210938 -665.5638427734375 -1568.675048828125 -665.5638427734375 C -1572.361572265625 -665.5638427734375 -1576.032836914062 -665.549072265625 -1579.636962890625 -665.5206298828125 C -1599.381591796875 -665.36474609375 -1612.569946289062 -645.0826416015625 -1604.545288085938 -627.0423583984375 C -1536.899658203125 -474.9912719726562 -1405.4365234375 -245.1592559814453 -1181.267822265625 -92.39575958251953 C -995.0656127929688 34.41970443725586 -811.2998657226562 64.61194610595703 -678.49072265625 64.61194610595703 M -678.4907836914062 65.61199188232422 C -756.7900390625 65.61199188232422 -834.7212524414062 55.18774032592773 -910.1199951171875 34.62873840332031 C -932.130615234375 28.62698936462402 -954.1997680664062 21.67086410522461 -975.7145385742188 13.95323944091797 C -998.4303588867188 5.804738998413086 -1021.150756835938 -3.415885925292969 -1043.244750976562 -13.45251083374023 C -1066.4765625 -24.00613594055176 -1089.65625 -35.75313568115234 -1112.140258789062 -48.36725997924805 C -1135.69873046875 -61.58426284790039 -1159.14599609375 -76.11951446533203 -1181.830688476562 -91.56925964355469 C -1195.609497070312 -100.9590072631836 -1209.401977539062 -110.8973846435547 -1222.825561523438 -121.1083831787109 C -1235.891235351562 -131.0472564697266 -1248.9658203125 -141.5171356201172 -1261.68603515625 -152.2272644042969 C -1286.066772460938 -172.7553863525391 -1310.119018554688 -194.984130859375 -1333.174438476562 -218.2960052490234 C -1354.85400390625 -240.2167663574219 -1376.205688476562 -263.6546325683594 -1396.63623046875 -287.9586486816406 C -1415.727416992188 -310.6690063476562 -1434.493041992188 -334.7050170898438 -1452.411987304688 -359.3988952636719 C -1469.027221679688 -382.296142578125 -1485.321533203125 -406.3193969726562 -1500.842163085938 -430.801513671875 C -1515.093994140625 -453.2823791503906 -1529.03125 -476.682373046875 -1542.2666015625 -500.3516235351562 C -1565.023193359375 -541.04736328125 -1586.2841796875 -583.5355224609375 -1605.458862304688 -626.6358642578125 C -1606.470458984375 -628.91015625 -1607.181518554688 -631.2822875976562 -1607.572265625 -633.6865234375 C -1607.948486328125 -636.0016479492188 -1608.030151367188 -638.3587646484375 -1607.815063476562 -640.6925048828125 C -1607.400146484375 -645.1948852539062 -1605.870239257812 -649.609375 -1603.390991210938 -653.458984375 C -1600.8974609375 -657.3306274414062 -1597.48388671875 -660.5701293945312 -1593.519287109375 -662.827392578125 C -1591.466918945312 -663.9959106445312 -1589.269653320312 -664.9024047851562 -1586.98876953125 -665.5216064453125 C -1584.620361328125 -666.1647338867188 -1582.149536132812 -666.5009155273438 -1579.644897460938 -666.5206298828125 C -1575.996948242188 -666.5493774414062 -1572.30615234375 -666.5639038085938 -1568.675048828125 -666.5639038085938 C -1527.029541015625 -666.5639038085938 -1485.640869140625 -664.6771240234375 -1445.659057617188 -660.9561157226562 C -1422.806640625 -658.8294067382812 -1400.061767578125 -656.0657348632812 -1378.05615234375 -652.7422485351562 C -1354.286987304688 -649.1524047851562 -1330.758178710938 -644.8151245117188 -1308.123168945312 -639.8507690429688 C -1283.868286132812 -634.5311279296875 -1259.992797851562 -628.349609375 -1237.159790039062 -621.477783203125 C -1212.850463867188 -614.1614990234375 -1189.06591796875 -605.864990234375 -1166.466552734375 -596.8184814453125 C -1142.534545898438 -587.2386474609375 -1119.278564453125 -576.5562744140625 -1097.344604492188 -565.068115234375 C -1085.931884765625 -559.0906372070312 -1074.63916015625 -552.77001953125 -1063.780029296875 -546.281982421875 C -1052.641723632812 -539.6272583007812 -1041.645629882812 -532.608642578125 -1031.097045898438 -525.421142578125 C -1019.237915039062 -517.34326171875 -1007.235290527344 -508.5741271972656 -995.4229125976562 -499.3572692871094 C -983.9384155273438 -490.3961486816406 -972.3191528320312 -480.7665100097656 -960.8878784179688 -470.7357482910156 C -939.0173950195312 -451.5447692871094 -916.9657592773438 -430.1243896484375 -895.3458862304688 -407.0696411132812 C -875.072509765625 -385.4510192871094 -854.666259765625 -361.8489990234375 -834.6939086914062 -336.9193725585938 C -816.09228515625 -313.7007751464844 -797.4068603515625 -288.7563781738281 -779.15673828125 -262.7792663574219 C -762.302001953125 -238.7882537841797 -745.4136352539062 -213.3405151367188 -728.9609985351562 -187.1430053710938 C -713.9285278320312 -163.2068786621094 -698.9140014648438 -138.0947570800781 -684.3346557617188 -112.5042572021484 C -659.5106201171875 -68.93238830566406 -635.4110107421875 -23.07113647460938 -612.7048950195312 23.80561447143555 C -611.6176147460938 26.05023956298828 -610.826416015625 28.40436363220215 -610.35302734375 30.80261421203613 C -609.8971557617188 33.11273956298828 -609.7335205078125 35.47536468505859 -609.8667602539062 37.82461547851562 C -610.1240234375 42.36311340332031 -611.4984130859375 46.84736251831055 -613.8414916992188 50.79236221313477 C -616.171875 54.71611404418945 -619.4268798828125 58.04811477661133 -623.2547607421875 60.42811584472656 C -625.238525390625 61.66161346435547 -627.375244140625 62.64211273193359 -629.6055297851562 63.34248733520508 C -631.921142578125 64.06974029541016 -634.3510131835938 64.49861145019531 -636.8275146484375 64.61724090576172 C -650.6031494140625 65.27723693847656 -664.6206665039062 65.61199188232422 -678.4907836914062 65.61199188232422 Z" stroke="none" fill="#1c4040"/>
      </g>
      <path id="Path_211-2" data-name="Path 211" d="M-1670.461-569.848c120.98-66.086,248.3-113.748,344.83-144.765a27.4,27.4,0,0,1,35.741,28.542c-12.392,133.9-62.41,332.413-230.537,517.26-46.7,51.313-97.54,95.918-150.031,134.655" transform="translate(1673.311 753.455)" fill="none" stroke="#1c4040" stroke-linecap="round" stroke-linejoin="round" stroke-width="1" fill-rule="evenodd"/>
      <path id="Path_212-2" data-name="Path 212" d="M-447.646-103.359C-600.381,9.357-767.064,72.381-886.148,106.423A27.4,27.4,0,0,1-920.77,76.384C-901-72.187-847.7-289.349-704.674-446.534c69.418-76.312,161.235-140.191,257.026-192.516" transform="translate(2347.646 822.656)" fill="none" stroke="#1c4040" stroke-linecap="round" stroke-linejoin="round" stroke-width="1" fill-rule="evenodd"/>
      <path id="Path_213-2" data-name="Path 213" d="M-1671.161-630.522c247.93-97.366,506.828-79.831,668.559-52.6a27.393,27.393,0,0,1,18.3,42.033c-81.9,125.524-223.629,298.458-420.437,378.6-81.615,33.26-174.064,51.275-267.22,59.5" transform="translate(1671.961 763.756)" fill="none" stroke="#4b72aa" stroke-linecap="round" stroke-linejoin="round" stroke-width="1" fill-rule="evenodd"/>
      <path id="Path_214-2" data-name="Path 214" d="M-461.468-238.026c-153.628,13.568-309.18.519-421.251-14.68a27.4,27.4,0,0,1-19.942-41.163c68.922-115.5,199.648-273.037,431.049-367.321q5.468-2.225,10.941-4.375" transform="translate(2360.668 798.799)" fill="none" stroke="#4b72aa" stroke-linecap="round" stroke-linejoin="round" stroke-width="1" fill-rule="evenodd"/>
    </g>
  </g>
</svg>
