<svg xmlns="http://www.w3.org/2000/svg" width="49" height="302" viewBox="0 0 49 302">
  <g id="Group_889" data-name="Group 889" transform="translate(-126 -1303)">
    <g id="Group_884" data-name="Group 884">
      <circle id="Ellipse_24" data-name="Ellipse 24" cx="1.5" cy="1.5" r="1.5" transform="translate(172 1326)" fill="#fff"/>
      <circle id="Ellipse_35" data-name="Ellipse 35" cx="1.5" cy="1.5" r="1.5" transform="translate(172 1510)" fill="#fff"/>
      <circle id="Ellipse_31" data-name="Ellipse 31" cx="1.5" cy="1.5" r="1.5" transform="translate(172 1418)" fill="#fff"/>
      <circle id="Ellipse_25" data-name="Ellipse 25" cx="1.5" cy="1.5" r="1.5" transform="translate(172 1349)" fill="#fff"/>
      <circle id="Ellipse_32" data-name="Ellipse 32" cx="1.5" cy="1.5" r="1.5" transform="translate(172 1533)" fill="#fff"/>
      <circle id="Ellipse_28" data-name="Ellipse 28" cx="1.5" cy="1.5" r="1.5" transform="translate(172 1441)" fill="#fff"/>
      <circle id="Ellipse_26" data-name="Ellipse 26" cx="1.5" cy="1.5" r="1.5" transform="translate(172 1372)" fill="#fff"/>
      <circle id="Ellipse_33" data-name="Ellipse 33" cx="1.5" cy="1.5" r="1.5" transform="translate(172 1556)" fill="#fff"/>
      <circle id="Ellipse_29" data-name="Ellipse 29" cx="1.5" cy="1.5" r="1.5" transform="translate(172 1464)" fill="#fff"/>
      <circle id="Ellipse_27" data-name="Ellipse 27" cx="1.5" cy="1.5" r="1.5" transform="translate(172 1395)" fill="#fff"/>
      <circle id="Ellipse_34" data-name="Ellipse 34" cx="1.5" cy="1.5" r="1.5" transform="translate(172 1579)" fill="#fff"/>
      <circle id="Ellipse_30" data-name="Ellipse 30" cx="1.5" cy="1.5" r="1.5" transform="translate(172 1487)" fill="#fff"/>
    </g>
    <g id="Group_886" data-name="Group 886" transform="translate(-46 23)">
      <circle id="Ellipse_24-2" data-name="Ellipse 24" cx="1.5" cy="1.5" r="1.5" transform="translate(172 1326)" fill="#fff"/>
      <circle id="Ellipse_35-2" data-name="Ellipse 35" cx="1.5" cy="1.5" r="1.5" transform="translate(172 1510)" fill="#fff"/>
      <circle id="Ellipse_31-2" data-name="Ellipse 31" cx="1.5" cy="1.5" r="1.5" transform="translate(172 1418)" fill="#fff"/>
      <circle id="Ellipse_25-2" data-name="Ellipse 25" cx="1.5" cy="1.5" r="1.5" transform="translate(172 1349)" fill="#fff"/>
      <circle id="Ellipse_32-2" data-name="Ellipse 32" cx="1.5" cy="1.5" r="1.5" transform="translate(172 1533)" fill="#fff"/>
      <circle id="Ellipse_28-2" data-name="Ellipse 28" cx="1.5" cy="1.5" r="1.5" transform="translate(172 1441)" fill="#fff"/>
      <circle id="Ellipse_26-2" data-name="Ellipse 26" cx="1.5" cy="1.5" r="1.5" transform="translate(172 1372)" fill="#fff"/>
      <circle id="Ellipse_33-2" data-name="Ellipse 33" cx="1.5" cy="1.5" r="1.5" transform="translate(172 1556)" fill="#fff"/>
      <circle id="Ellipse_29-2" data-name="Ellipse 29" cx="1.5" cy="1.5" r="1.5" transform="translate(172 1464)" fill="#fff"/>
      <circle id="Ellipse_27-2" data-name="Ellipse 27" cx="1.5" cy="1.5" r="1.5" transform="translate(172 1395)" fill="#fff"/>
      <circle id="Ellipse_34-2" data-name="Ellipse 34" cx="1.5" cy="1.5" r="1.5" transform="translate(172 1579)" fill="#fff"/>
      <circle id="Ellipse_30-2" data-name="Ellipse 30" cx="1.5" cy="1.5" r="1.5" transform="translate(172 1487)" fill="#fff"/>
    </g>
    <g id="Group_885" data-name="Group 885" transform="translate(-23 -23)">
      <circle id="Ellipse_24-3" data-name="Ellipse 24" cx="1.5" cy="1.5" r="1.5" transform="translate(172 1326)" fill="#fff"/>
      <circle id="Ellipse_35-3" data-name="Ellipse 35" cx="1.5" cy="1.5" r="1.5" transform="translate(172 1510)" fill="#fff"/>
      <circle id="Ellipse_31-3" data-name="Ellipse 31" cx="1.5" cy="1.5" r="1.5" transform="translate(172 1418)" fill="#fff"/>
      <circle id="Ellipse_25-3" data-name="Ellipse 25" cx="1.5" cy="1.5" r="1.5" transform="translate(172 1349)" fill="#fff"/>
      <circle id="Ellipse_32-3" data-name="Ellipse 32" cx="1.5" cy="1.5" r="1.5" transform="translate(172 1533)" fill="#fff"/>
      <circle id="Ellipse_28-3" data-name="Ellipse 28" cx="1.5" cy="1.5" r="1.5" transform="translate(172 1441)" fill="#fff"/>
      <circle id="Ellipse_26-3" data-name="Ellipse 26" cx="1.5" cy="1.5" r="1.5" transform="translate(172 1372)" fill="#fff"/>
      <circle id="Ellipse_33-3" data-name="Ellipse 33" cx="1.5" cy="1.5" r="1.5" transform="translate(172 1556)" fill="#fff"/>
      <circle id="Ellipse_29-3" data-name="Ellipse 29" cx="1.5" cy="1.5" r="1.5" transform="translate(172 1464)" fill="#fff"/>
      <circle id="Ellipse_27-3" data-name="Ellipse 27" cx="1.5" cy="1.5" r="1.5" transform="translate(172 1395)" fill="#fff"/>
      <circle id="Ellipse_34-3" data-name="Ellipse 34" cx="1.5" cy="1.5" r="1.5" transform="translate(172 1579)" fill="#fff"/>
      <circle id="Ellipse_30-3" data-name="Ellipse 30" cx="1.5" cy="1.5" r="1.5" transform="translate(172 1487)" fill="#fff"/>
    </g>
  </g>
</svg>
