<svg xmlns="http://www.w3.org/2000/svg" width="20" height="20" viewBox="0 0 20 20">
  <g id="fb" transform="translate(-179.088 -160.089)">
    <path id="Path_474" data-name="Path 474" d="M186.6,175.354h2.354v-4.706h1.765l.587-2.353h-2.352V166.53a.587.587,0,0,1,.587-.588h1.765v-2.353h-1.765a2.941,2.941,0,0,0-2.941,2.941v1.765h-1.765v2.353H186.6Z" transform="translate(1.015 0.618)" fill="#fff"/>
    <path id="Path_475" data-name="Path 475" d="M198.5,160.089H184.382a5.3,5.3,0,0,0-5.294,5.294V179.5a.588.588,0,0,0,.588.588h14.118a5.3,5.3,0,0,0,5.294-5.294V160.677A.588.588,0,0,0,198.5,160.089Zm-.588,14.706a4.122,4.122,0,0,1-4.118,4.118H180.264V165.383a4.123,4.123,0,0,1,4.118-4.118h13.529Z" transform="translate(0 0)" fill="#fff"/>
  </g>
</svg>
