<svg xmlns="http://www.w3.org/2000/svg" width="1901.241" height="1901.079" viewBox="0 0 1901.241 1901.079">
  <g id="Group_896" data-name="Group 896" transform="translate(518.174 1799.026)">
    <g id="Path_217" data-name="Path 217">
      <path id="Path_332" data-name="Path 332" d="M348.574-611.64C77.556-599.894-165.3-705.371-310.485-786.716a27.4,27.4,0,0,1-10.422-37.321,27.389,27.389,0,0,1,7.354-8.413C-194.178-923.081-2.5-1038.229,209.818-1047.442,443.054-1057.6,711.9-941.48,873.181-857.871a27.4,27.4,0,0,1,11.814,36.9,27.4,27.4,0,0,1-6.9,8.568C774.332-726.861,598.205-622.526,348.574-611.64Z" fill="none"/>
      <path id="Path_333" data-name="Path 333" d="M306.763-610.739q20.775,0,41.811-.9C598.205-622.526,774.332-726.866,878.1-812.4a27.4,27.4,0,0,0-4.919-45.473c-154.632-80.16-408.1-190.2-634.293-190.2-9.734,0-19.447.2-29.07.624-212.316,9.213-404,124.361-523.371,214.992a27.4,27.4,0,0,0,3.068,45.734C-172.8-709.577,52.693-610.739,306.763-610.739m0,1c-30.838,0-62.435-1.481-93.914-4.4-29.791-2.764-60.25-6.89-90.53-12.262-28.515-5.059-57.6-11.353-86.454-18.708-27.007-6.884-54.489-14.871-81.682-23.739-25.27-8.24-50.914-17.444-76.219-27.356-23.3-9.126-46.873-19.072-70.061-29.56-40.1-18.135-80.093-38.348-118.877-60.078a28.727,28.727,0,0,1-5.912-4.384,27.839,27.839,0,0,1-4.386-5.468,28.523,28.523,0,0,1-4.1-12.877,28.691,28.691,0,0,1,2.3-13.413,28.071,28.071,0,0,1,3.62-6.066,28.909,28.909,0,0,1,5.286-5.2c33.445-25.391,67.883-49.139,102.358-70.584,19.826-12.333,39.96-24.082,59.844-34.921,21.543-11.743,43.35-22.723,64.816-32.633,23.059-10.647,46.336-20.342,69.185-28.818,24.375-9.041,48.919-16.938,72.95-23.47a754.872,754.872,0,0,1,76.112-16.59c13.028-2.125,26.168-3.887,39.052-5.237,13.224-1.385,26.553-2.374,39.615-2.941,9.517-.415,19.312-.625,29.114-.625,13.9,0,28.29.423,42.758,1.257,14.073.811,28.61,2.034,43.206,3.633,27.948,3.064,57.226,7.631,87.021,13.575,27.973,5.58,57.111,12.516,86.6,20.614,27.509,7.553,56.011,16.3,84.714,26.011,26.556,8.981,53.926,19,81.349,29.769,25.113,9.864,50.855,20.592,76.509,31.885,43.89,19.321,88.5,40.706,132.593,63.563a28.922,28.922,0,0,1,6.071,4.2,28.092,28.092,0,0,1,4.592,5.334,28.691,28.691,0,0,1,4.576,12.768A28.53,28.53,0,0,1,887.1-823.1a27.863,27.863,0,0,1-3.345,6.136,28.713,28.713,0,0,1-5.024,5.343C774.795-725.951,598.45-621.536,348.617-610.641,334.8-610.042,320.721-609.739,306.763-609.739Z" fill="#fff" fill-rule="evenodd"/>
    </g>
    <path id="Path_218" data-name="Path 218" d="M186.83,101.3q-.159-6.334-.238-12.506c-.256-19.615,19.688-33.009,37.846-25.583C251.3,74.2,280.677,86.9,311.8,101.38" fill="none" stroke="#fff" stroke-linecap="round" stroke-linejoin="round" stroke-width="1"/>
    <path id="Path_219" data-name="Path 219" d="M311.8-1798.259c165.087,76.828,379.335,203.944,529,393.046,147.656,186.559,175.76,362.624,172.211,480.618a27.4,27.4,0,0,1-28.13,26.65,27.4,27.4,0,0,1-10.409-2.361c-180.5-80.553-479.985-234.841-633.233-428.444-120.822-152.655-151.072-337.214-154.407-469.58" fill="none" stroke="#fff" stroke-linecap="round" stroke-linejoin="round" stroke-width="1"/>
    <path id="Path_220" data-name="Path 220" d="M1382.362-654.562c-192.4,36.079-375.8,17.516-500.748-5.828a27.4,27.4,0,0,1-21.826-32.018,27.411,27.411,0,0,1,4.281-10.336C948.2-826.783,1093-997.155,1291.212-1073.763a734.219,734.219,0,0,1,91.154-28.293" fill="none" stroke="#fff" stroke-linecap="round" stroke-linejoin="round" stroke-width="1"/>
    <path id="Path_221" data-name="Path 221" d="M-517.385-1102.057c202.855-49.408,442.526-28.133,598.006-4.208a27.4,27.4,0,0,1,22.994,31.19,27.4,27.4,0,0,1-3.794,10.322C28.843-950.508-104.679-795.331-337.729-705.2a1019.469,1019.469,0,0,1-179.662,50.639" fill="none" stroke="#fff" stroke-linecap="round" stroke-linejoin="round" stroke-width="1"/>
    <path id="Path_222" data-name="Path 222" d="M836.113,101.45c-12.806-59.5-20.66-118.216-21.384-173.969-2.6-200.877,91.936-369.789,171.79-476.247,11.771-15.692,35.742-14.125,45.593,2.84,84.307,145.221,200.216,387,221.6,647.3" fill="none" stroke="#fff" stroke-linecap="round" stroke-linejoin="round" stroke-width="1"/>
    <path id="Path_223" data-name="Path 223" d="M1253.709-1798.255q2.882,35.051,3.383,70.489c3.072,237.9-82.145,394.513-156.981,485.8a27.4,27.4,0,0,1-38.549,3.931,27.4,27.4,0,0,1-6.8-8.221c-72.615-134.694-174.742-347.934-218.65-551.932" fill="none" stroke="#fff" stroke-linecap="round" stroke-linejoin="round" stroke-width="1"/>
    <path id="Path_224" data-name="Path 224" d="M375.639,101.305C554.809-29.571,813.879-94,981.078-123.8a27.4,27.4,0,0,1,31.843,22.081,27.393,27.393,0,0,1-.254,11,880,880,0,0,1-68.72,192.106" fill="none" stroke="#fff" stroke-linecap="round" stroke-linejoin="round" stroke-width="1"/>
    <path id="Path_225" data-name="Path 225" d="M943.947-1798.254C896.9-1703.223,824.9-1601.1,714.779-1508.7c-207.857,174.262-464.736,238.338-629.426,262.275a27.394,27.394,0,0,1-31-23.232,27.4,27.4,0,0,1,.712-11.18C94.6-1425.41,176.577-1633.432,339.4-1769.983q17.481-14.665,36.242-28.344" fill="none" stroke="#fff" stroke-linecap="round" stroke-linejoin="round" stroke-width="1"/>
    <path id="Path_226" data-name="Path 226" d="M1382.366-33.918C1210.453-67.7,1062.709-137.218,962.16-194.659a27.4,27.4,0,0,1-10.114-37.406,27.394,27.394,0,0,1,7.424-8.352c100.506-75,251.77-166.733,422.893-199.059" fill="none" stroke="#fff" stroke-linecap="round" stroke-linejoin="round" stroke-width="1"/>
    <path id="Path_227" data-name="Path 227" d="M-517.393-439.476a678.724,678.724,0,0,1,102.25-11.574c233.312-8.218,501.178,110.136,661.764,195.083a27.4,27.4,0,0,1,11.509,37,27.4,27.4,0,0,1-6.968,8.512C146.687-125.792-30.3-22.917-280.017-14.108c-82.46,2.888-162.226-5.049-237.374-19.815" fill="none" stroke="#fff" stroke-linecap="round" stroke-linejoin="round" stroke-width="1"/>
    <g id="Path_228" data-name="Path 228">
      <path id="Path_334" data-name="Path 334" d="M249.614-424.692c-78.157-220-45.977-511.07-13.378-689.793a27.4,27.4,0,0,1,31.814-22.123,27.4,27.4,0,0,1,10.215,4.079C390.5-1058.412,541.913-920.638,625.547-685.177c90.69,255.629,61.013,518.711,25.922,681.389a27.4,27.4,0,0,1-32.61,20.93,27.394,27.394,0,0,1-10.213-4.565C486.988-74.965,320.7-224.432,249.614-424.692Z" fill="none"/>
      <path id="Path_335" data-name="Path 335" d="M624.65,17.782a27.314,27.314,0,0,0,26.82-21.57c35.091-162.678,64.767-425.76-25.923-681.389C541.913-920.638,390.5-1058.412,278.265-1132.53a27.4,27.4,0,0,0-42.029,18.044c-32.6,178.724-64.778,469.793,13.379,689.794C320.7-224.432,486.988-74.965,608.647,12.577a27.244,27.244,0,0,0,16,5.2m0,1a28.252,28.252,0,0,1-16.587-5.394c-34.084-24.525-66.887-50.482-97.5-77.151C492.958-79.1,475.821-94.9,459.627-110.73c-17.544-17.15-34.437-34.777-50.207-52.391-16.941-18.921-33.036-38.33-47.84-57.687-15.793-20.649-30.54-41.8-43.833-62.853a754.979,754.979,0,0,1-38.183-67.893c-5.853-11.832-11.391-23.875-16.46-35.8-5.2-12.236-10.058-24.687-14.432-37.008-4.8-13.521-9.314-27.686-13.408-42.1-3.979-14.014-7.672-28.646-10.977-43.491-6.322-28.4-11.474-58.71-15.312-90.083-3.6-29.417-6.134-60.515-7.534-92.428-1.3-29.721-1.657-60.886-1.049-92.628.562-29.313,1.957-59.823,4.147-90.682,2-28.192,4.709-57.324,8.051-86.588,5.688-49.806,13.313-101.05,22.663-152.308a28.547,28.547,0,0,1,3.644-9.683,28.12,28.12,0,0,1,6.457-7.381,28.7,28.7,0,0,1,17.932-6.347,28.119,28.119,0,0,1,15.53,4.712c112.4,74.231,263.966,212.186,347.674,447.852,5.574,15.713,10.835,31.876,15.638,48.042,4.674,15.734,9.042,31.9,12.982,48.056,7.551,30.959,13.833,63.1,18.671,95.523,4.549,30.488,7.938,62.008,10.072,93.686,1.995,29.6,2.945,60.073,2.823,90.583-.112,28.285-1.147,57.292-3.077,86.217-1.772,26.553-4.339,53.667-7.63,80.589C670.317-96.577,662.4-49.731,652.447-3.577a28.338,28.338,0,0,1-3.818,9.327,27.837,27.837,0,0,1-6.446,7.042A28.8,28.8,0,0,1,624.65,18.782Z" fill="#fff" fill-rule="evenodd"/>
    </g>
    <g id="Path_229" data-name="Path 229">
      <path id="Path_336" data-name="Path 336" d="M138.455.756C-51.4,66.422-241.482,29.836-367.656-12.466c-18.6-6.237-24.653-29.485-11.649-44.172,121.312-137,339.673-345.707,610.557-439.395,224.85-77.768,400.32-46.153,510.522-3.839a27.4,27.4,0,0,1,15.867,35.352,27.394,27.394,0,0,1-5.667,9.048C616.334-311.707,371.8-79.966,138.455.756Z" fill="none"/>
      <path id="Path_337" data-name="Path 337" d="M-82.463,36.658c71.045,0,146-9.991,220.919-35.9C371.8-79.966,616.334-311.707,751.969-455.477a27.4,27.4,0,0,0-10.2-44.4c-61.2-23.5-142.508-43.7-241.249-43.7-79.055,0-169.3,12.956-269.273,47.534C-39.632-402.346-257.993-193.64-379.3-56.639c-13,14.687-6.949,37.935,11.649,44.172,76.387,25.61,176.19,49.125,285.193,49.125m0,1c-26.127,0-53.011-1.373-79.9-4.08-24.683-2.484-49.953-6.15-75.108-10.9a989.09,989.09,0,0,1-130.5-34.2,28.559,28.559,0,0,1-6.577-3.18,27.71,27.71,0,0,1-5.3-4.515A28.487,28.487,0,0,1-386.265-31a28.735,28.735,0,0,1-.312-13.566,28.114,28.114,0,0,1,2.369-6.631,28.949,28.949,0,0,1,4.154-6.1c34.735-39.227,71.253-77.358,108.54-113.334,21.871-21.1,44.286-41.722,66.621-61.285,24.431-21.4,49.382-42.072,74.161-61.445,26.818-20.968,54.132-40.959,81.182-59.418,29.032-19.812,58.533-38.384,87.683-55.2,15.3-8.825,30.812-17.349,46.117-25.335,15.778-8.233,31.775-16.126,47.547-23.46,16.239-7.55,32.7-14.72,48.913-21.31,16.678-6.777,33.572-13.132,50.214-18.888,24.383-8.433,49.016-15.848,73.214-22.039,23.143-5.92,46.5-10.878,69.429-14.736,21.858-3.678,43.9-6.452,65.508-8.246,20.527-1.7,41.2-2.568,61.449-2.568,23.747,0,47.582,1.187,70.845,3.528,21.52,2.165,43.07,5.37,64.051,9.526,19.21,3.8,38.389,8.495,57,13.94,16.816,4.918,33.54,10.56,49.707,16.767a28.97,28.97,0,0,1,6.459,3.465,28.082,28.082,0,0,1,5.136,4.742,28.666,28.666,0,0,1,5.995,12.064,28.537,28.537,0,0,1-.169,13.4,27.83,27.83,0,0,1-2.558,6.461,28.794,28.794,0,0,1-4.3,5.889c-39.491,41.859-79.969,82.444-120.308,120.628-50.562,47.859-101,92.01-149.909,131.225-27.826,22.311-55.6,43.368-82.542,62.587-29.039,20.713-57.883,39.835-85.73,56.837-14.651,8.944-29.328,17.486-43.623,25.386-14.761,8.158-29.529,15.862-43.895,22.9-14.812,7.255-29.613,14-43.992,20.059C167.892-8.934,153.116-3.258,138.783,1.7,120.467,8.035,101.551,13.609,82.56,18.268,64.323,22.741,45.528,26.491,26.7,29.411c-18.035,2.8-36.584,4.91-55.131,6.278C-46.145,36.995-64.323,37.658-82.463,37.658Z" fill="#fff" fill-rule="evenodd"/>
    </g>
    <g id="Path_230" data-name="Path 230">
      <path id="Path_338" data-name="Path 338" d="M31.572-1091.93C-192.6-1244.694-324.06-1474.527-391.7-1626.576a27.4,27.4,0,0,1,13.982-36.139,27.4,27.4,0,0,1,10.926-2.339c149.876-1.182,372.355,21.26,547.977,140.926C374.129-1392.7,520.038-1138.794,599.234-975.293A27.4,27.4,0,0,1,586.6-938.652a27.4,27.4,0,0,1-10.642,2.736C441.643-929.482,238.093-951.276,31.572-1091.93Z" fill="none"/>
      <path id="Path_339" data-name="Path 339" d="M534.356-934.923c14.493,0,28.392-.36,41.608-.993a27.405,27.405,0,0,0,23.27-39.378c-79.2-163.5-225.105-417.41-418.054-548.835C9.782-1640.917-206.222-1665.1-355.834-1665.1c-3.686,0-7.359.015-10.963.043a27.4,27.4,0,0,0-24.908,38.479c67.646,152.048,199.109,381.882,423.277,534.646,186.2,126.815,369.976,157.007,502.784,157.007m0,1a880.708,880.708,0,0,1-231.632-30.983c-22.011-6-44.081-12.958-65.6-20.676-22.717-8.148-45.437-17.369-67.532-27.405-23.232-10.554-46.412-22.3-68.9-34.915-23.559-13.217-47.006-27.752-69.691-43.2-13.779-9.39-27.571-19.328-41-29.539-13.065-9.939-26.14-20.409-38.86-31.119-24.381-20.528-48.433-42.757-71.488-66.069-21.68-21.921-43.032-45.358-63.462-69.663-19.091-22.71-37.857-46.746-55.776-71.44-16.615-22.9-32.909-46.921-48.43-71.4-14.252-22.481-28.189-45.881-41.424-69.55-22.757-40.7-44.018-83.183-63.193-126.283a28.727,28.727,0,0,1-2.113-7.051,27.824,27.824,0,0,1-.243-7.007A28.534,28.534,0,0,1-390.549-1653a28.682,28.682,0,0,1,9.871-9.367,28.073,28.073,0,0,1,6.53-2.693,28.921,28.921,0,0,1,7.343-1c3.648-.028,7.339-.043,10.971-.043,41.646,0,83.035,1.887,123.016,5.608,22.852,2.126,45.6,4.89,67.6,8.213,23.769,3.59,47.3,7.927,69.932,12.891,24.255,5.32,48.131,11.5,70.964,18.373,24.309,7.317,48.093,15.613,70.693,24.66A751.24,751.24,0,0,1,115.5-1564.6c11.412,5.978,22.705,12.3,33.564,18.787,11.138,6.655,22.134,13.674,32.683,20.861,11.859,8.078,23.862,16.847,35.674,26.064,11.485,8.96,23.1,18.59,34.535,28.621,21.87,19.191,43.922,40.611,65.542,63.665,20.273,21.619,40.679,45.221,60.652,70.15,18.6,23.219,37.287,48.163,55.537,74.141,16.855,23.99,33.743,49.438,50.2,75.636,15.032,23.936,30.046,49.048,44.626,74.639,24.824,43.572,48.923,89.433,71.629,136.31a28.85,28.85,0,0,1,2.352,7,28.089,28.089,0,0,1,.487,7.022A28.685,28.685,0,0,1,599-948.744a28.538,28.538,0,0,1-9.413,9.636,27.84,27.84,0,0,1-6.351,2.915,28.688,28.688,0,0,1-7.223,1.276C562.24-934.258,548.225-933.923,534.356-933.923Z" fill="#fff" fill-rule="evenodd"/>
    </g>
    <path id="Path_231" data-name="Path 231" d="M-514.782-1614.726c120.982-66.088,248.3-113.748,344.829-144.767a27.4,27.4,0,0,1,34.517,17.61,27.391,27.391,0,0,1,1.224,10.934c-12.392,133.9-62.41,332.411-230.535,517.257-46.7,51.315-97.542,95.92-150.033,134.656" fill="none" stroke="#fff" stroke-linecap="round" stroke-linejoin="round" stroke-width="1"/>
    <path id="Path_232" data-name="Path 232" d="M1382.368-1079.036c-152.737,112.714-319.42,175.737-438.5,209.779a27.393,27.393,0,0,1-33.83-18.877,27.4,27.4,0,0,1-.792-11.16c19.767-148.573,73.071-365.735,216.1-522.917,69.417-76.314,161.235-140.19,257.025-192.516" fill="none" stroke="#fff" stroke-linecap="round" stroke-linejoin="round" stroke-width="1"/>
    <path id="Path_233" data-name="Path 233" d="M-516.832-1665.1c247.929-97.366,506.827-79.833,668.558-52.6a27.4,27.4,0,0,1,22.4,31.621,27.4,27.4,0,0,1-4.1,10.414c-81.9,125.519-223.633,298.459-420.439,378.6-81.615,33.259-174.064,51.275-267.219,59.5" fill="none" stroke="#fff" stroke-linecap="round" stroke-linejoin="round" stroke-width="1"/>
    <path id="Path_234" data-name="Path 234" d="M1381.566-1237.563c-153.628,13.57-309.18.519-421.248-14.678a27.4,27.4,0,0,1-23.552-30.77,27.41,27.41,0,0,1,3.608-10.392c68.922-115.5,199.648-273.037,431.049-367.323q5.469-2.222,10.943-4.373" fill="none" stroke="#fff" stroke-linecap="round" stroke-linejoin="round" stroke-width="1"/>
  </g>
</svg>
