<svg xmlns="http://www.w3.org/2000/svg" width="20" height="20" viewBox="0 0 20 20">
  <g id="insta" transform="translate(-232.982 -151.004)">
    <path id="Path_478" data-name="Path 478" d="M252.394,151H238.276a5.3,5.3,0,0,0-5.294,5.294v14.118a.588.588,0,0,0,.588.588h14.118a5.3,5.3,0,0,0,5.294-5.294V151.592A.588.588,0,0,0,252.394,151Zm-.588,14.706a4.122,4.122,0,0,1-4.118,4.118H234.158V156.3a4.122,4.122,0,0,1,4.118-4.118h13.529Z" fill="#fff"/>
    <path id="Path_479" data-name="Path 479" d="M236.791,156.533a4.291,4.291,0,0,0-.274,1.427c-.028.628-.035.828-.035,2.426s.007,1.8.035,2.425a4.292,4.292,0,0,0,.274,1.428,3,3,0,0,0,1.72,1.72,4.292,4.292,0,0,0,1.428.274c.627.028.827.035,2.425.035s1.8-.007,2.426-.035a4.291,4.291,0,0,0,1.427-.274,3,3,0,0,0,1.721-1.72,4.325,4.325,0,0,0,.273-1.428c.028-.627.035-.827.035-2.425s-.007-1.8-.035-2.426a4.323,4.323,0,0,0-.273-1.427,3.01,3.01,0,0,0-1.721-1.721,4.324,4.324,0,0,0-1.427-.273c-.628-.028-.828-.035-2.426-.035s-1.8.007-2.425.035a4.325,4.325,0,0,0-1.428.273,3,3,0,0,0-1.72,1.721Zm8.713.007a.706.706,0,1,1-.706.706A.706.706,0,0,1,245.5,156.54Zm-3.14.825a3.021,3.021,0,1,1-3.021,3.021A3.022,3.022,0,0,1,242.364,157.365Z" transform="translate(0.618 0.618)" fill="#fff"/>
    <path id="Path_480" data-name="Path 480" d="M241.776,161.759a1.961,1.961,0,1,0-1.961-1.961A1.961,1.961,0,0,0,241.776,161.759Z" transform="translate(1.206 1.206)" fill="#fff"/>
  </g>
</svg>
