<svg xmlns="http://www.w3.org/2000/svg" width="428.319" height="386.009" viewBox="0 0 428.319 386.009">
  <path id="Path_192" data-name="Path 192" d="M673.353,411.138l-.211,0a385.292,385.292,0,0,0-60.083,5.215c-27.721,4.806-50.838,12.789-68.711,23.729-17.03,10.42-32.4,25.42-45.672,44.583q-3.735,5.391-7.2,11.158V385.181c.368.032.736.057,1.107.068,2.836.087,5.722.131,8.576.131,31.63,0,78.007-5.3,119.324-30.575a169.074,169.074,0,0,0,49.487-45.732,165.086,165.086,0,0,0,22.234-43.146,19.912,19.912,0,0,0-18.853-26.319h-.215a385.827,385.827,0,0,0-60.079,5.218c-27.722,4.807-50.841,12.792-68.713,23.733-17.028,10.418-32.394,25.419-45.669,44.582q-3.735,5.391-7.2,11.157V260.747a9.956,9.956,0,1,0-19.913,0V401.91c-.42-.613-.842-1.227-1.274-1.836-11.852-16.708-27.689-31.03-47.069-42.568-48.418-28.825-107.429-33.3-138.3-33.41h-.067a19.913,19.913,0,0,0-18.785,26.518,179.911,179.911,0,0,0,20.624,41.33c11.862,17.489,26.324,31.386,42.983,41.3,18.6,11.073,43.565,19.522,74.193,25.112a493.063,493.063,0,0,0,65.59,7.077c.284.012.569.018.852.018.418,0,.834-.016,1.249-.043V615.659a9.956,9.956,0,1,0,19.913,0V556.707c.361.031.725.056,1.091.067,2.882.091,5.817.137,8.723.137,31.572,0,77.878-5.305,119.194-30.581a169.1,169.1,0,0,0,49.486-45.73,165.144,165.144,0,0,0,22.234-43.14,19.913,19.913,0,0,0-18.853-26.322Zm-118.61-125.6c35.729-21.873,89.314-25.706,118.609-26.021-7.076,20.822-24,54.264-63.258,78.3-37.985,23.234-81.176,27.65-108.934,27.65-2.822,0-5.484-.045-7.964-.122C502.47,342.542,521.672,305.776,554.743,285.541Zm-214.876,130.6c-31.8-18.933-47.7-51.346-55.008-72.129,29.361.1,83.993,4.3,128.176,30.607,38.138,22.705,52.14,52.265,57.278,70.927C438.815,444.2,377.656,438.632,339.867,416.138Zm270.227,93.206C572.17,532.544,529.054,537,501.292,537c-2.871,0-5.575-.048-8.1-.127,9.274-22.8,28.475-59.569,61.547-79.8,35.729-21.868,89.314-25.706,118.609-26.016C666.276,451.867,649.356,485.309,610.094,509.343Z" transform="translate(-264.946 -239.607)" fill="#fff"/>
</svg>
