<svg xmlns="http://www.w3.org/2000/svg" width="20" height="20" viewBox="0 0 20 20">
  <g id="linkedin" transform="translate(-205.333 -151.004)">
    <path id="Path_471" data-name="Path 471" d="M208.824,155.92a1.416,1.416,0,1,0,1.416-1.416A1.416,1.416,0,0,0,208.824,155.92Z" transform="translate(0.616 0.618)" fill="#fff"/>
    <rect id="Rectangle_839" data-name="Rectangle 839" width="2.445" height="7.858" transform="translate(209.634 159.028)" fill="#fff"/>
    <path id="Path_472" data-name="Path 472" d="M214.809,161.825c0-1.025.193-2.018,1.465-2.018,1.253,0,1.268,1.172,1.268,2.084v3.821h2.442V161.4c0-2.116-.456-3.744-2.929-3.744a2.564,2.564,0,0,0-2.311,1.268h-.034v-1.074h-2.341v7.859h2.44Z" transform="translate(1.242 1.174)" fill="#fff"/>
    <path id="Path_473" data-name="Path 473" d="M224.745,151H210.627a5.3,5.3,0,0,0-5.294,5.294v14.118a.588.588,0,0,0,.588.588h14.118a5.3,5.3,0,0,0,5.294-5.294V151.592A.588.588,0,0,0,224.745,151Zm-.588,14.706a4.122,4.122,0,0,1-4.118,4.118H206.509V156.3a4.122,4.122,0,0,1,4.118-4.118h13.529Z" transform="translate(0)" fill="#fff"/>
  </g>
</svg>
