<svg xmlns="http://www.w3.org/2000/svg" width="34.51" height="40" viewBox="0 0 34.51 40">
  <g id="Polygon_6" data-name="Polygon 6" transform="translate(34.51) rotate(90)" fill="none" stroke-linecap="round" stroke-linejoin="round">
    <path d="M18.27,2.986a2,2,0,0,1,3.461,0L38.26,31.507a2,2,0,0,1-1.73,3H3.471a2,2,0,0,1-1.73-3Z" stroke="none"/>
    <path d="M 20.00000190734863 5.982967376708984 L 5.206035614013672 31.50979995727539 L 34.79396820068359 31.50979995727539 L 20.00000190734863 5.982967376708984 M 19.99999809265137 1.988643646240234 C 20.67256736755371 1.988643646240234 21.34513854980469 2.321025848388672 21.73039817810059 2.985790252685547 L 38.25971984863281 31.50695037841797 C 39.03243637084961 32.84028244018555 38.07036972045898 34.50979995727539 36.5293083190918 34.50979995727539 L 3.470687866210938 34.50979995727539 C 1.92962646484375 34.50979995727539 0.967559814453125 32.84028244018555 1.740287780761719 31.50695037841797 L 18.26959800720215 2.985790252685547 C 18.65485763549805 2.321025848388672 19.32742881774902 1.988643646240234 19.99999809265137 1.988643646240234 Z" stroke="none" fill="#fff"/>
  </g>
</svg>
