<svg xmlns="http://www.w3.org/2000/svg" width="29.4" height="22.38" viewBox="0 0 29.4 22.38">
  <g id="_" data-name=" " transform="translate(126.645 -344.195) rotate(180)" style="isolation: isolate">
    <g id="Group_892" data-name="Group 892" style="isolation: isolate">
      <path id="Path_216" data-name="Path 216" d="M110-354.485a6.742,6.742,0,0,1,.929,3.569,6.459,6.459,0,0,1-1.92,4.86,6.775,6.775,0,0,1-4.92,1.861,6.771,6.771,0,0,1-4.919-1.861,6.455,6.455,0,0,1-1.92-4.86,10.95,10.95,0,0,1,.359-2.76,26.789,26.789,0,0,1,1.621-4.08l3.839-8.819h7.141l-2.821,9.779A5.879,5.879,0,0,1,110-354.485Zm15.719,0a6.734,6.734,0,0,1,.931,3.569,6.463,6.463,0,0,1-1.92,4.86,6.778,6.778,0,0,1-4.92,1.861,6.776,6.776,0,0,1-4.921-1.861,6.459,6.459,0,0,1-1.92-4.86,10.863,10.863,0,0,1,.361-2.76,26.622,26.622,0,0,1,1.619-4.08l3.841-8.819h7.139L123.1-356.8A5.871,5.871,0,0,1,125.714-354.485Z" fill="#fff"/>
    </g>
  </g>
</svg>
