<svg xmlns="http://www.w3.org/2000/svg" width="20" height="20" viewBox="0 0 20 20">
  <g id="twiiter" transform="translate(-145.947 -151.004)">
    <path id="Path_476" data-name="Path 476" d="M149.817,155.493a2.674,2.674,0,0,0,.827,3.568,2.668,2.668,0,0,1-1.211-.334v.034a2.674,2.674,0,0,0,2.144,2.62,2.665,2.665,0,0,1-.7.094,2.63,2.63,0,0,1-.5-.048,2.677,2.677,0,0,0,2.5,1.856,5.36,5.36,0,0,1-3.32,1.145,5.443,5.443,0,0,1-.638-.038,7.6,7.6,0,0,0,11.7-6.4q0-.173-.007-.346a5.425,5.425,0,0,0,1.334-1.384,5.349,5.349,0,0,1-1.535.421,2.68,2.68,0,0,0,1.175-1.479,5.343,5.343,0,0,1-1.7.648,2.676,2.676,0,0,0-4.555,2.439A7.594,7.594,0,0,1,149.817,155.493Z" transform="translate(0.523 0.706)" fill="#fff"/>
    <path id="Path_477" data-name="Path 477" d="M165.359,151H151.241a5.3,5.3,0,0,0-5.294,5.294v14.118a.588.588,0,0,0,.588.588h14.118a5.3,5.3,0,0,0,5.294-5.294V151.592A.588.588,0,0,0,165.359,151Zm-.588,14.706a4.122,4.122,0,0,1-4.118,4.118H147.123V156.3a4.123,4.123,0,0,1,4.118-4.118h13.529Z" fill="#fff"/>
  </g>
</svg>
